<svg version="1.1" id="Layer_1" xmlns="http://www.w3.org/2000/svg" xmlns:xlink="http://www.w3.org/1999/xlink" x="0px" y="0px"
	 width="100%" viewBox="0 0 447 447" enable-background="new 0 0 447 447" xml:space="preserve">
<path fill="#000000" opacity="1.000000" stroke="none" 
	d="
M306.000000,448.000000 
	C204.028366,448.000000 102.556725,448.000000 1.042543,448.000000 
	C1.042543,299.070007 1.042543,150.139999 1.042543,1.104995 
	C149.888306,1.104995 298.776703,1.104995 447.832550,1.104995 
	C447.832550,149.999847 447.832550,298.999908 447.832550,448.000000 
	C400.806610,448.000000 353.653320,448.000000 306.000000,448.000000 
M137.120621,299.865479 
	C137.120621,299.865479 137.244598,299.851044 137.037781,299.324493 
	C136.697678,299.186401 136.357559,299.048340 136.018021,298.978577 
	C136.018021,298.978577 136.079498,298.948761 135.831207,298.358185 
	C134.540863,297.280670 133.250519,296.203125 131.771774,294.641083 
	C131.493851,294.445831 131.215927,294.250549 130.744949,293.400269 
	C128.134201,289.418213 125.018562,285.673584 123.012421,281.407227 
	C118.048241,270.850128 118.827148,259.909027 121.990257,248.999420 
	C121.990257,248.999420 122.001808,249.019775 122.509239,248.553726 
	C123.400436,246.398102 124.291634,244.242493 125.088310,242.076782 
	C125.088310,242.076782 125.087769,242.171829 125.628723,241.996811 
	C125.794014,241.673889 125.959305,241.350952 126.052231,241.047440 
	C126.052231,241.047440 126.077034,241.118134 126.654541,240.812103 
	C127.496544,239.541595 128.338531,238.271088 129.589554,236.861115 
	C129.835464,236.675079 129.969879,236.428314 130.521011,235.948029 
	C130.691666,235.632812 130.862305,235.317612 130.995499,234.994415 
	C130.995499,234.994415 131.009827,235.029922 131.576767,234.833572 
	C132.073227,234.216400 132.569672,233.599228 133.508972,232.888016 
	C133.807037,232.744232 133.978256,232.508377 134.679855,231.980286 
	C136.569839,230.440033 138.459808,228.899765 140.214569,227.256699 
	C140.214569,227.256699 140.297729,227.404816 140.869751,227.248703 
	C141.273056,226.848587 141.676361,226.448456 142.014908,226.014862 
	C142.014908,226.014862 142.040619,226.083084 142.656906,225.965988 
	C143.431030,225.300156 144.205154,224.634323 144.998505,223.998962 
	C144.998505,223.998962 144.972549,223.973160 145.516586,223.911606 
	C145.723343,223.628784 145.930099,223.345963 146.063614,223.053177 
	C146.063614,223.053177 146.070526,223.126770 146.693176,223.022400 
	C147.469604,222.349289 148.246048,221.676178 148.998016,220.992493 
	C148.998016,220.992493 148.998322,221.019043 149.638840,220.904343 
	C150.787247,219.953903 151.935669,219.003464 153.019241,218.028351 
	C153.019241,218.028351 153.012848,218.097427 153.612991,217.996796 
	C153.872406,217.699631 154.131821,217.402466 154.731339,217.066772 
	C154.731339,217.066772 154.926086,216.785309 155.501953,216.669754 
	C156.044769,216.145065 156.587570,215.620361 157.048615,215.045532 
	C157.048615,215.045532 157.086487,215.133682 157.749084,214.997299 
	C159.657150,213.549896 161.565216,212.102493 163.618103,210.640671 
	C163.618103,210.640671 163.675537,210.506943 164.247772,210.240997 
	C165.537170,209.184784 166.826584,208.128586 168.045410,207.041321 
	C168.045410,207.041321 168.059921,207.117050 168.707611,207.007019 
	C169.863525,206.047623 171.019424,205.088226 172.081375,204.110855 
	C172.081375,204.110855 172.074677,204.206268 172.655487,204.104691 
	C173.071198,203.711761 173.486908,203.318817 173.965225,202.996750 
	C173.965225,202.996750 173.934753,202.907242 174.568390,202.802994 
	C175.704605,201.858337 176.840820,200.913681 178.000000,200.000000 
	C178.000000,200.000000 177.976440,199.969604 178.524414,199.921112 
	C178.725128,199.631302 178.925842,199.341492 179.043015,199.041168 
	C179.043015,199.041168 179.037338,199.125168 179.663910,199.010651 
	C180.453659,198.343155 181.243393,197.675674 181.996445,196.989700 
	C181.996445,196.989700 181.995941,197.030792 182.556076,196.968658 
	C182.774033,196.681091 182.991989,196.393524 183.114395,196.100067 
	C183.114395,196.100067 183.121017,196.195541 183.739670,196.060257 
	C184.518005,195.388306 185.296326,194.716354 186.014908,194.010361 
	C186.014908,194.010361 186.031097,194.077179 186.648254,193.973053 
	C187.425491,193.306549 188.202713,192.640045 188.998779,192.000000 
	C188.998779,192.000000 188.975204,191.976212 189.671341,191.834610 
	C203.576111,182.505798 218.098862,182.932251 232.976898,189.022598 
	C232.976898,189.022598 232.915665,189.053741 233.232681,189.593353 
	C233.816589,189.791183 234.400482,189.989014 235.207825,190.617783 
	C235.457855,190.859650 235.755814,190.962128 236.462143,191.432053 
	C237.481155,192.112839 238.500168,192.793610 239.563889,193.489075 
	C239.563889,193.489075 239.601562,193.517258 239.792587,193.963333 
	C239.998428,194.244354 240.275208,194.394806 240.883347,194.161606 
	C240.883347,194.161606 240.595795,194.383392 240.872391,194.965698 
	C242.189560,196.054138 243.506729,197.142563 244.843796,198.138672 
	C244.843796,198.138672 244.749374,198.135803 244.893280,198.686539 
	C245.200012,198.887482 245.506760,199.088425 245.820435,199.177368 
	C245.820435,199.177368 245.709091,199.191223 245.889679,199.794815 
	C246.592468,200.537582 247.295242,201.280365 248.006790,201.996048 
	C248.006790,201.996048 247.978516,201.999512 248.131454,202.629166 
	C249.076843,203.770645 250.022217,204.912125 251.000580,206.005112 
	C251.000580,206.005112 250.945236,206.024475 251.033798,206.622253 
	C251.575714,207.195343 252.117630,207.768433 252.714706,208.238892 
	C252.714706,208.238892 252.605087,208.278442 252.750290,208.862534 
	C253.146179,209.278503 253.542068,209.694473 253.963211,210.040634 
	C253.963211,210.040634 253.890152,210.053665 254.014725,210.670288 
	C254.677170,211.455124 255.339630,212.239944 256.013367,212.992722 
	C256.013367,212.992722 255.979584,212.989044 256.055267,213.542419 
	C256.336761,213.761948 256.618286,213.981461 256.916687,214.081329 
	C256.916687,214.081329 256.796082,214.073914 256.885315,214.627533 
	C257.139984,214.880859 257.394684,215.134171 257.836182,215.055038 
	C257.836182,215.055038 257.619873,215.369171 257.845184,216.018814 
	C259.270172,216.817841 259.062897,220.745056 262.730042,218.120972 
	C263.138550,217.748871 263.547058,217.376785 264.566742,216.891937 
	C265.520264,216.122650 266.473816,215.353363 267.503357,214.570984 
	C267.503357,214.570984 267.550232,214.509720 268.064819,214.293167 
	C268.426666,213.895523 268.788544,213.497879 269.073090,213.072052 
	C269.073090,213.072052 269.092957,213.151932 269.763672,213.009476 
	C271.866211,211.359222 273.968719,209.708969 276.007324,208.008759 
	C276.007324,208.008759 276.044800,208.080704 276.661469,207.984238 
	C277.433228,207.314682 278.204987,206.645126 278.998779,206.001114 
	C278.998779,206.001114 278.984894,205.971436 279.531494,205.917740 
	C279.728149,205.627243 279.924774,205.336746 280.041077,205.037689 
	C280.041077,205.037689 280.037079,205.118393 280.698059,204.981537 
	C282.233887,203.748657 283.769714,202.515778 285.216644,201.261612 
	C285.216644,201.261612 285.223297,201.352722 285.806885,201.219574 
	C286.221710,200.818665 286.636566,200.417770 287.003296,199.993835 
	C287.003296,199.993835 287.010437,200.046722 287.649323,199.917709 
	C288.791718,198.960052 289.934113,198.002396 291.012726,197.012085 
	C291.012726,197.012085 291.039825,197.078430 291.658356,196.948242 
	C292.453766,195.638504 296.501465,195.667648 293.201294,192.219727 
	C292.836517,191.818573 292.471741,191.417419 291.949158,190.375381 
	C290.982635,189.222855 290.016113,188.070328 289.017059,186.982788 
	C289.017059,186.982788 289.086060,186.959946 288.979279,186.342133 
	C288.304230,185.564011 287.629211,184.785873 286.880127,183.548813 
	C286.753632,183.231857 286.522583,183.042480 286.064575,182.410919 
	C285.774902,182.174713 285.485260,181.938507 285.172852,181.828461 
	C285.172852,181.828461 285.301025,181.831284 285.222992,181.308334 
	C284.984772,181.060684 284.746582,180.813034 284.237854,180.698837 
	C284.237854,180.698837 284.482605,180.522537 284.261475,179.950775 
	C283.605835,179.197815 282.950165,178.444839 282.251617,177.788544 
	C282.251617,177.788544 282.351868,177.754837 282.208099,177.182556 
	C281.789673,176.787201 281.371246,176.391846 280.864044,175.537933 
	C280.720001,175.229034 280.479645,175.047958 280.005402,174.439392 
	C279.700012,174.230530 279.394623,174.021667 279.070648,173.923294 
	C279.070648,173.923294 279.182220,173.933487 279.092102,173.361145 
	C278.797150,173.139648 278.502167,172.918152 278.201752,172.816986 
	C278.201752,172.816986 278.321045,172.800140 278.166412,172.242126 
	C277.751007,171.865723 277.335571,171.489319 276.977539,171.037643 
	C276.977539,171.037643 276.890106,171.073883 276.760284,170.498123 
	C276.166687,170.002106 275.573090,169.506088 274.998779,169.001221 
	C274.998779,169.001221 274.986176,169.018280 274.884521,168.496719 
	C274.591339,168.319092 274.298157,168.141479 273.992676,168.006165 
	C273.992676,168.006165 274.035797,167.997208 273.910309,167.467178 
	C273.616760,167.281830 273.323181,167.096497 273.020996,166.979568 
	C273.020996,166.979568 273.089539,166.971878 272.955688,166.433777 
	C272.647430,166.257187 272.339172,166.080597 272.025238,165.973846 
	C272.025238,165.973846 272.094818,165.965622 271.956604,165.432861 
	C271.637939,165.277969 271.319305,165.123077 270.994659,165.005814 
	C270.994659,165.005814 271.029846,164.991272 270.847198,164.454025 
	C270.385773,164.133698 269.924347,163.813385 269.269745,163.836716 
	C269.269745,163.836716 269.426300,163.474930 269.189178,163.035675 
	C268.964355,162.759811 268.674255,162.612823 268.291443,162.695816 
	C268.291443,162.695816 268.387329,162.653534 268.112579,162.099564 
	C267.432434,161.669785 266.752258,161.239990 266.075928,160.922287 
	C266.075928,160.922287 266.187347,160.909561 265.991364,160.385742 
	C265.660492,160.243042 265.329620,160.100357 264.996399,160.008209 
	C264.996399,160.008209 265.042877,159.988190 264.763123,159.416229 
	C263.860229,158.888962 262.957367,158.361694 262.064270,157.917755 
	C262.064270,157.917755 262.146149,157.899490 261.902344,157.359055 
	C261.385406,157.082397 260.868439,156.805725 260.139771,156.784683 
	C260.139771,156.784683 260.385925,156.562027 260.090546,156.102661 
	C259.745667,156.004547 259.400787,155.906433 259.071259,155.904480 
	C259.071259,155.904480 259.165375,155.879562 258.909546,155.337708 
	C258.375885,155.074753 257.842255,154.811798 257.243683,154.692093 
	C257.243683,154.692093 257.367096,154.594559 256.975586,154.045776 
	C253.066025,152.220993 249.156448,150.396210 245.231781,148.673706 
	C245.231781,148.673706 245.321304,148.621994 244.906586,148.141830 
	C243.562531,147.557083 242.218475,146.972321 240.441986,145.772522 
	C239.485199,145.566269 238.528427,145.360001 236.917587,145.112793 
	C236.269485,145.088898 235.621368,145.065018 234.988098,144.850067 
	C234.988098,144.850067 235.055176,144.670547 234.807693,144.342850 
	C234.606461,144.152557 234.376724,144.007339 234.141220,143.256851 
	C233.717926,142.528030 233.349335,141.203415 232.863220,141.158798 
	C224.092438,140.353516 215.313065,139.585144 206.518539,139.164703 
	C205.393967,139.110962 204.174530,141.041809 202.480072,142.414124 
	C202.306030,142.532898 202.131989,142.651672 201.733170,142.451981 
	C201.733170,142.451981 201.492996,142.144958 200.838440,142.087509 
	C200.235306,142.293579 199.632172,142.499634 198.295868,142.935562 
	C197.531479,142.978928 196.767090,143.022293 195.825027,142.422989 
	C193.103180,140.039764 191.981155,141.748169 191.163345,144.158920 
	C191.163345,144.158920 191.242096,144.191940 190.785049,144.231430 
	C190.481415,144.316299 190.226440,144.477905 189.381042,144.955185 
	C188.929428,144.988586 188.477798,145.022003 187.561813,144.650253 
	C186.037354,145.395218 184.512878,146.140167 182.635269,147.123993 
	C182.635269,147.123993 182.210602,147.086121 181.396118,147.027664 
	C177.583832,147.027664 173.771561,147.027664 170.071533,147.027664 
	C170.071533,149.557526 170.071533,151.351044 169.784286,153.676300 
	C168.900055,154.129822 168.015808,154.583344 166.624420,154.856430 
	C166.078354,155.511490 165.532303,156.166534 164.379868,157.096893 
	C163.587463,157.733124 162.795059,158.369370 161.503647,158.564529 
	C158.372711,158.045868 157.105835,159.301636 157.732224,162.736252 
	C157.732224,162.736252 157.430542,162.802002 156.812149,162.523514 
	C155.866760,163.231567 154.921371,163.939621 153.550888,165.088577 
	C153.041290,165.395172 152.531677,165.701752 151.225571,165.992325 
	C148.488892,165.762405 146.677292,166.573624 146.516953,170.189194 
	C145.671082,170.768448 144.825211,171.347702 143.435043,171.507217 
	C139.540527,171.289612 136.997620,172.643509 137.027710,177.037766 
	C137.027710,177.037766 136.992661,177.035461 136.192703,177.009903 
	C133.231430,177.332642 130.270142,177.655380 128.627884,177.834366 
	C128.354889,179.645599 128.177444,180.822800 127.917686,181.834488 
	C127.917686,181.834488 127.704063,181.818695 127.704063,181.818695 
	C127.704063,181.818695 127.999695,182.000000 127.515427,182.414719 
	C126.053230,181.771301 124.591026,181.127899 122.871017,180.371048 
	C118.553635,181.143982 121.535019,191.352020 114.242973,188.193176 
	C113.116768,190.929306 112.070541,193.471146 110.790367,196.525284 
	C110.453400,196.661026 110.116432,196.796753 109.246979,197.051315 
	C108.874565,197.419540 108.502144,197.787781 107.853271,198.728058 
	C106.836510,199.465393 105.819748,200.202713 104.117142,201.001953 
	C103.452705,201.772568 102.788269,202.543182 101.896767,203.842300 
	C101.424896,204.060699 100.953026,204.279083 100.253548,204.049301 
	C100.116112,203.779633 99.978676,203.509979 99.841240,203.240311 
	C100.010818,203.691589 100.180397,204.142868 100.542145,204.696793 
	C100.542145,204.696793 100.472137,204.903122 99.908218,205.224121 
	C99.652794,205.564041 99.397377,205.903961 99.137398,206.163300 
	C99.137398,206.163300 99.216331,206.180237 98.556816,206.234085 
	C98.010010,207.085922 97.463211,207.937744 96.935982,208.931839 
	C96.935982,208.931839 96.792877,208.943954 96.433586,209.171906 
	C96.211433,209.361649 96.058731,209.596542 95.992439,209.964767 
	C95.992439,209.964767 95.903893,209.979614 95.294113,209.999725 
	C94.928848,210.697845 94.563583,211.395966 94.035873,212.666687 
	C93.643883,213.097015 93.251892,213.527344 92.154312,214.013428 
	C87.476936,217.382355 83.337212,220.887070 82.727455,227.400223 
	C82.403084,230.864944 81.689957,235.388855 75.888115,234.232239 
	C75.240707,234.103180 74.299255,235.449127 73.494171,236.111053 
	C74.378227,236.486252 75.267662,236.849319 76.145081,237.239441 
	C77.495972,237.840042 78.838623,238.459198 80.179436,239.732285 
	C80.042206,240.149429 79.904968,240.566589 79.270569,241.107376 
	C79.192337,241.744034 79.114113,242.380676 79.064949,243.809799 
	C78.860512,244.565094 78.656067,245.320374 78.201904,246.388138 
	C78.072090,246.632996 78.028282,246.892395 78.163162,247.599396 
	C78.163162,247.599396 77.956078,247.990891 77.305069,248.215485 
	C77.221413,249.815903 77.137756,251.416336 77.151917,253.874573 
	C77.001266,255.591599 76.850616,257.308624 76.326988,259.641846 
	C76.434143,261.749786 76.541306,263.857727 76.856262,266.837280 
	C76.913910,269.222107 76.971558,271.606934 76.499977,274.498993 
	C75.361488,277.476715 72.313988,280.951172 78.810249,282.714996 
	C78.865456,283.475555 78.920662,284.236145 78.305359,285.226837 
	C76.223434,288.620667 74.141510,292.014526 72.034248,295.595917 
	C72.034248,295.595917 71.849312,295.636230 71.152412,295.309937 
	C70.157433,294.791229 69.162445,294.272552 68.601349,293.980042 
	C66.708855,295.344482 64.812218,296.257477 63.561943,297.722168 
	C61.783154,299.806061 60.479214,302.295288 58.633011,304.977600 
	C58.633011,304.977600 58.142647,305.071869 57.344940,305.032562 
	C51.934631,307.861572 46.524319,310.690582 40.626770,313.774384 
	C43.514759,317.169403 42.960583,319.033569 39.420780,319.669067 
	C41.006500,320.801697 42.446060,321.443909 43.339966,322.533691 
	C47.747036,327.906738 52.009514,333.398346 56.770729,339.413757 
	C58.027271,337.254395 58.985950,335.606903 59.977852,333.984375 
	C59.977852,333.984375 59.969933,333.943756 60.666271,333.953369 
	C61.421974,333.261597 62.177673,332.569855 63.147106,331.394257 
	C63.467373,331.272766 63.787640,331.151276 64.666702,330.936096 
	C65.073944,330.570435 65.481186,330.204773 65.981453,329.877594 
	C65.981453,329.877594 65.910583,329.806030 66.458008,330.096527 
	C69.777214,328.732605 73.096413,327.368683 76.441521,325.994141 
	C79.291191,330.851410 79.291191,330.851410 71.255394,331.485809 
	C72.149162,333.211273 73.064232,334.977844 73.690018,337.058685 
	C73.690018,337.058685 73.265770,337.108337 72.779091,337.282990 
	C72.536285,337.522430 72.293472,337.761871 72.035759,338.052734 
	C72.035759,338.052734 71.983444,338.041321 71.101257,338.003845 
	C69.268761,338.014771 67.074051,337.383484 65.679131,338.170258 
	C62.772495,339.809631 59.980400,341.947968 57.902676,344.500946 
	C57.507183,344.986938 60.223915,349.428192 62.196598,350.147827 
	C67.736107,352.168518 67.821724,356.724091 68.295700,359.240051 
	C72.281250,362.685486 75.056030,365.084229 77.767120,367.427917 
	C81.553452,364.918213 85.632469,363.087463 88.458481,360.079498 
	C90.952560,357.424835 96.783760,357.562653 95.901978,351.955139 
	C95.901978,351.955139 95.874191,351.892639 96.324768,351.716095 
	C96.610176,351.548279 96.832581,351.319275 96.996841,350.984283 
	C96.996841,350.984283 97.037567,351.003662 97.793655,351.016510 
	C99.509407,349.640564 101.225159,348.264618 103.273697,346.308594 
	C106.483543,344.187927 109.693390,342.067291 113.597954,340.269073 
	C118.898682,340.755951 123.009445,346.133759 129.518646,344.018036 
	C129.685989,344.109375 129.853317,344.200684 130.344070,344.616455 
	C130.596695,344.805969 130.880768,344.907593 131.625351,344.876007 
	C131.625351,344.876007 131.986740,345.111633 132.187561,345.766541 
	C137.221603,350.963196 143.552826,350.731262 150.755646,349.892548 
	C151.514618,349.991608 152.273605,350.090668 153.652908,350.607452 
	C161.052841,350.886932 168.452240,351.187836 175.854462,351.379089 
	C176.203461,351.388062 176.577621,350.422577 176.956619,349.998566 
	C176.956619,349.998566 176.905334,349.925507 177.288086,349.913818 
	C177.548447,349.858704 177.763474,349.728638 178.648041,349.177277 
	C179.435699,349.135284 180.223358,349.093292 181.374802,349.601654 
	C183.752609,351.815796 184.785461,350.875977 185.318253,347.812286 
	C185.318253,347.812286 185.698120,347.881195 186.171265,347.833099 
	C186.487228,347.748810 186.754898,347.585419 187.604263,347.049652 
	C188.064133,347.022217 188.524017,346.994812 189.526138,347.428101 
	C192.834854,348.696075 194.968994,347.573181 196.410904,343.956757 
	C196.410904,343.956757 196.895676,343.951843 197.623642,344.106750 
	C203.581894,345.324005 208.720215,342.118683 208.994431,336.975372 
	C208.994431,336.975372 209.036545,336.993591 209.783310,337.008850 
	C211.420990,335.510742 213.058670,334.012634 214.696350,332.514496 
	C213.094482,331.713135 211.492615,330.911804 210.000549,330.012939 
	C210.000549,330.012939 209.885040,330.101349 209.978424,329.369354 
	C210.460587,327.868317 210.942764,326.367310 211.529327,324.541321 
	C209.136887,324.028229 206.955536,323.560394 204.323059,322.913849 
	C204.072266,322.674774 203.954361,322.382141 204.253998,321.404755 
	C203.541016,317.181702 202.828033,312.958649 202.091675,308.597046 
	C199.739563,310.095520 198.202744,311.074615 196.456772,312.050354 
	C196.456772,312.050354 196.397491,311.849762 196.668030,311.071014 
	C197.488449,309.261536 198.308868,307.452026 199.475220,304.879547 
	C196.775375,305.768158 194.896027,306.386719 192.987930,307.001190 
	C192.987930,307.001190 192.999695,306.974579 193.012283,306.176483 
	C192.689392,303.436127 192.366501,300.695770 192.198944,299.273712 
	C190.521469,296.879852 189.480835,295.394806 188.077362,293.391968 
	C186.808090,298.350281 183.292038,301.050629 178.177826,301.876190 
	C177.634186,301.963959 177.379852,303.843811 176.313507,305.298523 
	C165.350571,309.556702 154.662354,307.606018 144.061661,303.945709 
	C144.061661,303.945709 144.126434,303.907715 143.715561,303.374847 
	C141.912521,302.431519 140.109482,301.488190 138.294449,300.639252 
	C138.294449,300.639252 138.385925,300.613037 138.128906,300.126892 
	C137.792953,299.998169 137.457001,299.869415 137.120621,299.865479 
M297.019104,272.017975 
	C297.019104,272.017975 297.007355,272.088440 297.661469,271.986053 
	C297.974915,271.698639 298.288361,271.411224 298.780304,271.162994 
	C298.780304,271.162994 298.841553,270.990814 299.416595,270.935760 
	C299.628571,270.634003 299.840515,270.332245 299.997192,270.007172 
	C299.997192,270.007172 300.038513,270.051056 300.615692,269.958435 
	C301.210327,269.471161 301.804962,268.983917 302.454498,268.470398 
	C302.454498,268.470398 302.482147,268.416138 303.094788,268.185730 
	C304.760986,266.815430 306.427185,265.445129 308.038239,264.031433 
	C308.038239,264.031433 308.009064,264.095215 308.603668,263.997375 
	C308.887177,263.735474 309.170685,263.473541 309.941589,262.751984 
	C324.009766,252.596619 338.456390,242.920914 352.064819,232.182938 
	C377.914032,211.786102 388.333008,184.608383 383.362915,152.283783 
	C382.065765,143.847244 383.431732,139.472443 390.647400,135.278183 
	C399.339966,130.225433 407.276642,123.872261 415.701263,117.969444 
	C410.857635,111.046112 406.338745,104.586975 401.815094,98.121017 
	C391.420685,105.362877 381.497253,112.276611 371.331818,119.358963 
	C369.112213,116.226715 367.149841,113.457474 365.124298,110.599037 
	C375.457977,103.405411 385.370972,96.504639 395.488373,89.461563 
	C390.729218,82.607590 386.290222,76.214699 381.660095,69.546547 
	C370.863525,77.031654 360.361145,84.252411 349.939697,91.588150 
	C347.823822,93.077545 346.178192,93.552612 343.718384,92.008942 
	C332.260681,84.818626 319.697784,80.470772 306.244934,79.375175 
	C285.324951,77.671440 266.097717,82.466362 248.985931,95.586952 
	C257.481598,107.214203 265.790314,118.585602 274.060822,129.904709 
	C275.337891,129.177979 276.063416,128.770416 276.783905,128.354248 
	C298.342590,115.902435 323.265167,122.238892 336.171875,143.454132 
	C347.666260,162.347885 342.332611,186.388367 323.266449,200.542313 
	C307.630554,212.149780 291.448792,223.049240 276.155273,235.083817 
	C256.609314,250.464691 226.949631,248.421478 211.457275,224.628571 
	C208.209167,219.640213 204.483688,214.962677 200.827911,209.935257 
	C192.621002,216.114517 184.803467,222.000580 176.427216,227.997513 
	C176.205490,228.290909 175.983765,228.584305 175.895935,228.898407 
	C175.895935,228.898407 175.904816,228.763184 175.310013,228.850174 
	C174.890854,229.245819 174.471695,229.641464 174.006027,229.999969 
	C174.006027,229.999969 174.020859,230.057617 173.492706,230.124420 
	C173.292603,230.401581 173.092514,230.678741 172.967834,230.972977 
	C172.967834,230.972977 172.981689,230.896881 172.410400,230.961716 
	C172.178757,231.247498 171.947113,231.533295 171.849762,231.833725 
	C171.849762,231.833725 171.845932,231.698669 171.259460,231.831345 
	C170.833740,232.231232 170.408020,232.631119 169.530151,233.097687 
	C169.216827,233.218445 169.028519,233.443710 168.287125,233.966721 
	C165.381088,237.818878 170.087845,238.650482 171.131302,241.430695 
	C171.252853,241.759140 171.486420,241.951752 171.979187,242.629135 
	C172.662933,243.412521 173.346695,244.195908 174.001083,244.996262 
	C174.001083,244.996262 174.024536,244.969971 174.135254,245.607925 
	C175.087448,246.746368 176.039642,247.884811 177.004745,248.998947 
	C177.004745,248.998947 176.977814,249.003647 177.077957,249.597092 
	C177.611160,250.175934 178.144379,250.754776 178.707489,251.248230 
	C178.707489,251.248230 178.617432,251.256943 178.763733,251.834839 
	C179.170334,252.239960 179.576920,252.645081 180.004517,253.001450 
	C180.004517,253.001450 179.952621,253.012558 180.088028,253.625687 
	C180.887253,254.575912 181.686462,255.526123 182.882843,256.208466 
	C182.882843,256.208466 182.506287,256.504669 182.744171,257.010406 
	C183.161911,257.346252 183.579636,257.682129 184.003311,257.997467 
	C184.003311,257.997467 183.982361,258.002106 184.141006,258.583496 
	C184.738281,259.095093 185.335556,259.606720 185.954208,260.046112 
	C185.954208,260.046112 185.880600,260.061981 186.035233,260.654175 
	C186.631180,261.182983 187.227112,261.711761 187.849045,262.152893 
	C187.849045,262.152893 187.762131,262.181396 187.991409,262.792236 
	C189.307999,263.894104 190.624588,264.996002 191.980774,266.018127 
	C191.980774,266.018127 191.907852,266.069214 192.153229,266.680511 
	C193.746704,267.826141 195.340179,268.971741 196.965256,270.039581 
	C196.965256,270.039581 196.889404,270.075470 197.138168,270.678986 
	C198.415878,271.472290 199.693573,272.265594 200.994888,273.000977 
	C200.994888,273.000977 200.944107,273.037506 201.213898,273.613708 
	C202.146667,274.076599 203.079422,274.539490 204.003525,274.992889 
	C204.003525,274.992889 203.990738,274.991699 204.349792,275.545868 
	C205.904633,276.364075 207.459473,277.182281 209.004761,277.992920 
	C209.004761,277.992920 208.993500,277.988617 209.388397,278.564362 
	C217.526291,281.254059 225.486633,284.903473 233.836334,286.448212 
	C256.260712,290.596771 277.284393,286.694427 295.996735,272.991119 
	C295.996735,272.991119 295.991089,273.012268 296.544586,272.953339 
	C296.726044,272.646484 296.907532,272.339630 297.019104,272.017975 
M101.638084,196.881134 
	C102.220551,195.967926 102.803024,195.054718 103.385498,194.141495 
	C102.809937,193.925323 102.234375,193.709137 101.658813,193.492966 
	C101.438911,194.661743 101.219009,195.830521 100.518410,197.105209 
	C100.229965,197.416229 99.941528,197.727234 99.653084,198.038239 
	C99.764656,198.139801 99.876236,198.241348 99.987823,198.342896 
	C100.325478,197.895538 100.663139,197.448166 101.638084,196.881134 
M71.242432,246.522980 
	C71.242432,248.680191 71.242432,250.837387 71.242432,252.994598 
	C71.954048,252.899170 72.665672,252.803741 73.377289,252.708328 
	C72.808914,250.467072 72.240532,248.225815 71.242432,246.522980 
M221.669403,136.959076 
	C222.491714,136.764618 223.314011,136.570160 224.136322,136.375702 
	C224.096771,135.991226 224.057205,135.606766 224.017654,135.222305 
	C222.658127,135.378342 221.298599,135.534378 219.939072,135.690414 
	C220.301666,136.095703 220.664261,136.500992 221.669403,136.959076 
M124.487198,348.868896 
	C124.808258,349.375549 125.129311,349.882172 125.450386,350.388855 
	C125.763458,350.080414 126.076538,349.771973 126.389595,349.463531 
	C125.888519,349.134857 125.387444,348.806152 124.487198,348.868896 
M69.330338,289.796783 
	C69.826088,289.577667 70.321831,289.358551 70.817574,289.139404 
	C70.521217,288.695801 70.224869,288.252167 69.928513,287.808563 
	C69.674065,288.292145 69.419609,288.775696 69.330338,289.796783 
M217.868744,335.513062 
	C218.375656,335.191864 218.882568,334.870697 219.389481,334.549500 
	C219.080902,334.236328 218.772339,333.923126 218.463760,333.609955 
	C218.134918,334.111237 217.806076,334.612518 217.868744,335.513062 
M89.029175,365.405914 
	C89.029305,365.801971 89.029434,366.197998 89.029564,366.594055 
	C89.452454,366.477814 89.875343,366.361603 90.298233,366.245392 
	C90.032921,365.927185 89.767609,365.609009 89.029175,365.405914 
M165.782104,150.396225 
	C165.985321,150.228226 166.188538,150.060226 166.391739,149.892227 
	C166.290527,149.783386 166.189301,149.674530 166.088089,149.565689 
	C165.907150,149.758041 165.726196,149.950394 165.782104,150.396225 
M55.566971,300.133850 
	C55.829586,300.155457 56.092197,300.177094 56.354813,300.198700 
	C56.358379,300.049927 56.361946,299.901184 56.365517,299.752411 
	C56.101974,299.762695 55.838432,299.772980 55.566971,300.133850 
M141.782104,168.396164 
	C141.985291,168.228180 142.188477,168.060196 142.391678,167.892212 
	C142.290466,167.783356 142.189270,167.674515 142.088089,167.565674 
	C141.907150,167.758011 141.726212,167.950348 141.782104,168.396164 
M117.469940,344.496185 
	C117.469940,344.496185 117.513824,344.478729 117.469940,344.496185 
M108.503662,195.470016 
	C108.503662,195.470016 108.521255,195.514038 108.503662,195.470016 
z"/>
<path fill="#FCE604" opacity="1.000000" stroke="none" 
	d="
M176.985931,227.886658 
	C184.803467,222.000580 192.621002,216.114517 200.827911,209.935257 
	C204.483688,214.962677 208.209167,219.640213 211.457275,224.628571 
	C226.949631,248.421478 256.609314,250.464691 276.155273,235.083817 
	C291.448792,223.049240 307.630554,212.149780 323.266449,200.542313 
	C342.332611,186.388367 347.666260,162.347885 336.171875,143.454132 
	C323.265167,122.238892 298.342590,115.902435 276.783905,128.354248 
	C276.063416,128.770416 275.337891,129.177979 274.060822,129.904709 
	C265.790314,118.585602 257.481598,107.214203 248.985931,95.586952 
	C266.097717,82.466362 285.324951,77.671440 306.244934,79.375175 
	C319.697784,80.470772 332.260681,84.818626 343.718384,92.008942 
	C346.178192,93.552612 347.823822,93.077545 349.939697,91.588150 
	C360.361145,84.252411 370.863525,77.031654 381.660095,69.546547 
	C386.290222,76.214699 390.729218,82.607590 395.488373,89.461563 
	C385.370972,96.504639 375.457977,103.405411 365.124298,110.599037 
	C367.149841,113.457474 369.112213,116.226715 371.331818,119.358963 
	C381.497253,112.276611 391.420685,105.362877 401.815094,98.121017 
	C406.338745,104.586975 410.857635,111.046112 415.701263,117.969444 
	C407.276642,123.872261 399.339966,130.225433 390.647400,135.278183 
	C383.431732,139.472443 382.065765,143.847244 383.362915,152.283783 
	C388.333008,184.608383 377.914032,211.786102 352.064819,232.182938 
	C338.456390,242.920914 324.009766,252.596619 309.409393,263.036255 
	C308.587799,263.578735 308.298431,263.836975 308.009064,264.095215 
	C308.009064,264.095215 308.038239,264.031433 307.692200,264.039825 
	C305.724792,265.504181 304.103455,266.960144 302.482147,268.416138 
	C302.482147,268.416138 302.454498,268.470398 302.098145,268.418457 
	C301.174042,268.928070 300.606293,269.489563 300.038513,270.051056 
	C300.038513,270.051056 299.997192,270.007172 299.776367,270.110168 
	C299.317535,270.472351 299.079529,270.731598 298.841553,270.990814 
	C298.841553,270.990814 298.780304,271.162994 298.375061,271.212830 
	C297.649017,271.537964 297.328186,271.813202 297.007355,272.088440 
	C297.007355,272.088440 297.019104,272.017975 296.820862,272.125854 
	C296.412109,272.493286 296.201599,272.752777 295.991089,273.012268 
	C295.991089,273.012268 295.996735,272.991119 295.633789,272.992798 
	C293.772522,273.631561 292.165344,274.091309 290.793030,274.933746 
	C279.486694,281.873962 267.408539,286.188782 254.258255,285.801270 
	C256.076660,285.183746 257.609344,284.800659 259.142029,284.417603 
	C259.129578,284.017151 259.117096,283.616669 259.104645,283.216217 
	C252.954346,283.216217 246.801712,283.141937 240.657578,283.336334 
	C240.072525,283.354858 239.540604,285.053375 238.574234,285.974792 
	C230.327667,283.758759 222.495270,281.524261 214.650940,279.332367 
	C212.785614,278.811127 210.880371,278.432709 208.993500,277.988617 
	C208.993500,277.988617 209.004761,277.992920 208.928986,277.658020 
	C207.232391,276.545959 205.611572,275.768829 203.990738,274.991699 
	C203.990738,274.991699 204.003525,274.992889 203.919098,274.669250 
	C202.871140,273.909607 201.907623,273.473572 200.944107,273.037506 
	C200.944107,273.037506 200.994888,273.000977 200.933014,272.675964 
	C199.543900,271.592468 198.216644,270.833984 196.889404,270.075470 
	C196.889404,270.075470 196.965256,270.039581 196.917755,269.707397 
	C195.216110,268.273193 193.561981,267.171204 191.907852,266.069214 
	C191.907852,266.069214 191.980774,266.018127 191.931793,265.706207 
	C190.509262,264.323334 189.135696,263.252380 187.762131,262.181396 
	C187.762131,262.181396 187.849045,262.152893 187.812042,261.866272 
	C187.143555,261.073792 186.512085,260.567871 185.880600,260.061981 
	C185.880600,260.061981 185.954208,260.046112 185.905991,259.761719 
	C185.232635,258.985565 184.607498,258.493835 183.982361,258.002106 
	C183.982361,258.002106 184.003311,257.997467 183.947998,257.711548 
	C183.430542,257.118652 182.968414,256.811676 182.506287,256.504669 
	C182.506287,256.504669 182.882843,256.208466 182.710541,255.995361 
	C181.676376,254.859024 180.814499,253.935791 179.952621,253.012558 
	C179.952621,253.012558 180.004517,253.001450 179.948273,252.723022 
	C179.467163,252.048721 179.042297,251.652832 178.617432,251.256943 
	C178.617432,251.256943 178.707489,251.248230 178.721329,250.958572 
	C178.149384,250.113831 177.563599,249.558746 176.977814,249.003647 
	C176.977814,249.003647 177.004745,248.998947 177.006607,248.653442 
	C176.013824,247.195297 175.019180,246.082626 174.024536,244.969971 
	C174.024536,244.969971 174.001083,244.996262 174.006134,244.636536 
	C173.284790,243.520721 172.558395,242.764633 171.832001,242.008545 
	C171.486420,241.951752 171.252853,241.759140 171.089600,240.816483 
	C170.353683,238.059341 169.659454,235.916412 168.965225,233.773483 
	C169.028519,233.443710 169.216827,233.218445 170.063217,233.024292 
	C171.012833,232.533493 171.429382,232.116074 171.845932,231.698669 
	C171.845932,231.698669 171.849762,231.833725 172.046906,231.755554 
	C172.489929,231.417221 172.735809,231.157043 172.981689,230.896881 
	C172.981689,230.896881 172.967834,230.972977 173.171600,230.890549 
	C173.590515,230.557953 173.805679,230.307785 174.020844,230.057617 
	C174.020859,230.057617 174.006027,229.999969 174.328003,229.982635 
	C175.068253,229.564590 175.486526,229.163879 175.904816,228.763184 
	C175.904816,228.763184 175.895935,228.898407 176.091751,228.804596 
	C176.520355,228.436081 176.753143,228.161362 176.985931,227.886658 
z"/>
<path fill="#FCE703" opacity="1.000000" stroke="none" 
	d="
M292.106964,191.016266 
	C292.471741,191.417419 292.836517,191.818573 293.011719,192.709534 
	C292.228027,194.492371 291.633911,195.785400 291.039795,197.078430 
	C291.039825,197.078430 291.012726,197.012085 290.695862,197.047119 
	C289.256134,198.070343 288.133301,199.058548 287.010437,200.046722 
	C287.010437,200.046722 287.003296,199.993835 286.721710,200.042511 
	C286.034515,200.511688 285.628906,200.932220 285.223297,201.352722 
	C285.223297,201.352722 285.216644,201.261612 284.901062,201.242859 
	C283.069366,202.522202 281.553223,203.820297 280.037079,205.118393 
	C280.037079,205.118393 280.041077,205.037689 279.836853,205.119797 
	C279.416718,205.458420 279.200806,205.714920 278.984894,205.971436 
	C278.984894,205.971436 278.998779,206.001114 278.641968,205.982788 
	C277.538391,206.669861 276.791595,207.375275 276.044800,208.080688 
	C276.044800,208.080704 276.007324,208.008759 275.670898,208.015533 
	C273.253967,209.732178 271.173462,211.442062 269.092957,213.151947 
	C269.092957,213.151932 269.073090,213.072052 268.807343,213.118515 
	C268.211151,213.613220 267.880676,214.061462 267.550232,214.509720 
	C267.550232,214.509720 267.503357,214.570984 267.100677,214.466583 
	C265.783844,215.243011 264.869720,216.123856 263.955597,217.004700 
	C263.547058,217.376785 263.138550,217.748871 262.230713,217.927246 
	C260.360901,216.945389 258.990387,216.157272 257.619873,215.369171 
	C257.619873,215.369171 257.836182,215.055038 257.708252,214.943665 
	C257.318909,214.579498 257.057495,214.326706 256.796082,214.073914 
	C256.796082,214.073914 256.916687,214.081329 256.833252,213.886414 
	C256.493103,213.457352 256.236328,213.223190 255.979584,212.989044 
	C255.979584,212.989044 256.013367,212.992722 256.005951,212.661285 
	C255.295746,211.571121 254.592957,210.812393 253.890152,210.053665 
	C253.890152,210.053665 253.963211,210.040634 253.911957,209.768005 
	C253.442169,209.089737 253.023636,208.684082 252.605103,208.278442 
	C252.605087,208.278442 252.714706,208.238892 252.719574,207.957306 
	C252.131393,207.125305 251.538315,206.574890 250.945236,206.024475 
	C250.945236,206.024475 251.000580,206.005112 250.970825,205.682083 
	C249.953552,204.239197 248.966034,203.119354 247.978516,201.999512 
	C247.978516,201.999512 248.006790,201.996048 247.970123,201.679291 
	C247.191986,200.638763 246.450531,199.914993 245.709091,199.191223 
	C245.709091,199.191223 245.820435,199.177368 245.723145,198.973572 
	C245.333694,198.558441 245.041534,198.347122 244.749374,198.135803 
	C244.749374,198.135803 244.843796,198.138672 244.822098,197.831772 
	C243.398865,196.477707 241.997330,195.430542 240.595795,194.383392 
	C240.595795,194.383392 240.883347,194.161606 240.701538,194.029083 
	C240.213669,193.770142 239.907623,193.643692 239.601562,193.517258 
	C239.601562,193.517258 239.563889,193.489075 239.534271,193.134979 
	C238.370346,192.162308 237.236038,191.543762 236.101730,190.925201 
	C235.755814,190.962128 235.457855,190.859650 234.927704,190.133911 
	C234.070282,189.451263 233.492966,189.252502 232.915665,189.053741 
	C232.915665,189.053741 232.976898,189.022598 232.813354,188.748962 
	C231.277359,187.591293 230.014008,186.388382 228.514618,185.875290 
	C219.243835,182.702759 209.774475,181.871124 200.484192,185.375717 
	C196.399216,186.916702 192.796753,189.736862 188.975204,191.976212 
	C188.975204,191.976212 188.998779,192.000000 188.644547,191.984421 
	C187.537247,192.671616 186.784164,193.374405 186.031097,194.077179 
	C186.031097,194.077179 186.014908,194.010361 185.691315,194.019775 
	C184.618835,194.751312 183.869934,195.473434 183.121033,196.195557 
	C183.121017,196.195541 183.114395,196.100067 182.907471,196.179962 
	C182.465668,196.516846 182.230804,196.773819 181.995941,197.030792 
	C181.995941,197.030792 181.996445,196.989700 181.685776,197.012390 
	C180.595856,197.731766 179.816589,198.428467 179.037338,199.125168 
	C179.037338,199.125168 179.043015,199.041168 178.839691,199.123688 
	C178.416397,199.460663 178.196411,199.715134 177.976440,199.969604 
	C177.976440,199.969604 178.000000,200.000000 177.635574,199.981262 
	C176.159012,200.944077 175.046875,201.925659 173.934753,202.907242 
	C173.934753,202.907242 173.965225,202.996750 173.636978,202.996765 
	C172.897385,203.399933 172.486038,203.803101 172.074677,204.206268 
	C172.074677,204.206268 172.081375,204.110855 171.758514,204.099152 
	C170.310410,205.097336 169.185165,206.107193 168.059921,207.117050 
	C168.059921,207.117050 168.045410,207.041321 167.721451,207.068420 
	C166.156830,208.232666 164.916183,209.369797 163.675537,210.506943 
	C163.675537,210.506943 163.618103,210.640671 163.184296,210.601685 
	C160.862473,212.086349 158.974472,213.610016 157.086487,215.133667 
	C157.086487,215.133682 157.048615,215.045532 156.781204,215.080582 
	C155.984558,215.672180 155.455322,216.228745 154.926086,216.785309 
	C154.926086,216.785309 154.731339,217.066772 154.273590,217.160156 
	C153.548172,217.534821 153.280518,217.816132 153.012848,218.097427 
	C153.012848,218.097427 153.019241,218.028351 152.689758,218.029938 
	C151.239624,219.027359 150.118973,220.023193 148.998322,221.019043 
	C148.998322,221.019043 148.998016,220.992493 148.662720,220.995880 
	C147.575134,221.708435 146.822830,222.417603 146.070526,223.126770 
	C146.070526,223.126770 146.063614,223.053177 145.850586,223.128555 
	C145.415894,223.460342 145.194229,223.716751 144.972549,223.973160 
	C144.972549,223.973160 144.998505,223.998962 144.644379,223.993103 
	C143.540390,224.685867 142.790512,225.384476 142.040619,226.083084 
	C142.040619,226.083084 142.014908,226.014862 141.739120,226.062012 
	C141.074799,226.541061 140.686264,226.972931 140.297729,227.404816 
	C140.297729,227.404816 140.214569,227.256699 139.903336,227.263824 
	C136.619171,227.640915 134.283447,228.733765 134.022614,232.180435 
	C133.978256,232.508377 133.807037,232.744232 132.967224,232.987473 
	C131.953583,233.734589 131.481705,234.382248 131.009827,235.029922 
	C131.009827,235.029922 130.995499,234.994415 130.776733,235.117584 
	C130.369583,235.534103 130.181198,235.827454 129.992813,236.120804 
	C129.969879,236.428314 129.835464,236.675079 129.017639,236.975037 
	C127.656151,238.432022 126.866592,239.775085 126.077034,241.118134 
	C126.077034,241.118134 126.052231,241.047440 125.864418,241.178085 
	C125.480324,241.596436 125.284050,241.884140 125.087769,242.171829 
	C125.087769,242.171829 125.088310,242.076782 124.811317,242.232269 
	C123.690155,244.598434 122.845978,246.809113 122.001801,249.019775 
	C122.001808,249.019775 121.990257,248.999420 121.692688,249.176529 
	C114.765114,262.140930 117.952446,274.461609 123.665718,286.386414 
	C125.114357,289.410065 128.462616,291.523590 130.938004,294.055298 
	C131.215927,294.250549 131.493851,294.445831 131.887573,295.231689 
	C133.362076,296.864441 134.720779,297.906586 136.079498,298.948761 
	C136.079498,298.948761 136.018021,298.978577 136.157837,299.175537 
	C136.613312,299.531982 136.928955,299.691528 137.244598,299.851044 
	C137.244598,299.851044 137.120621,299.865479 137.249756,300.049744 
	C137.714554,300.360352 138.050247,300.486694 138.385925,300.613037 
	C138.385925,300.613037 138.294449,300.639252 138.406189,300.929474 
	C140.387451,302.115692 142.256943,303.011688 144.126434,303.907715 
	C144.126434,303.907715 144.061661,303.945709 144.216522,304.232056 
	C150.833176,308.666443 158.177277,309.375031 165.432510,308.796295 
	C170.017792,308.430511 174.455383,306.213623 178.947144,304.871155 
	C178.935089,304.915283 178.849487,304.882904 179.165009,304.895935 
	C179.978607,304.563385 180.476669,304.217773 180.965485,303.907806 
	C180.956223,303.943451 180.886627,303.919342 181.268127,303.948944 
	C182.740021,303.236938 183.830429,302.495331 185.109131,301.488586 
	C186.450989,301.368591 187.983658,301.100555 188.682175,301.741577 
	C190.332428,303.255890 191.585815,305.202667 192.999695,306.974579 
	C192.999695,306.974579 192.987930,307.001190 193.062622,307.329895 
	C194.224030,309.055664 195.310760,310.452728 196.397491,311.849762 
	C196.397491,311.849762 196.456772,312.050354 196.676819,312.386353 
	C199.254364,315.826874 201.611847,318.931458 203.969345,322.036011 
	C203.954361,322.382141 204.072266,322.674774 204.630920,323.338013 
	C206.587524,325.875244 208.236282,327.988312 209.885040,330.101349 
	C209.885040,330.101349 210.000549,330.012939 210.010086,330.398041 
	C210.722610,331.957825 211.425583,333.132507 212.142899,334.331116 
	C210.935760,335.365753 209.986160,336.179657 209.036545,336.993591 
	C209.036545,336.993591 208.994431,336.975372 208.650940,337.063568 
	C204.503540,339.418457 200.699600,341.685150 196.895676,343.951843 
	C196.895676,343.951843 196.410904,343.956757 195.863525,344.115326 
	C193.205399,345.171722 191.094650,346.069580 188.983887,346.967407 
	C188.524017,346.994812 188.064133,347.022217 187.037827,347.166504 
	C186.213638,347.482635 185.955872,347.681915 185.698120,347.881195 
	C185.698120,347.881195 185.318253,347.812286 184.815979,347.894318 
	C183.212814,348.334656 182.111908,348.692963 181.011017,349.051270 
	C180.223358,349.093292 179.435699,349.135284 178.087402,349.290405 
	C177.214737,349.452637 177.007599,349.626648 176.905334,349.925507 
	C176.905334,349.925507 176.956619,349.998566 176.485062,349.907959 
	C168.353195,349.941467 160.692886,350.065613 153.032578,350.189758 
	C152.273605,350.090668 151.514618,349.991608 150.031219,349.795837 
	C143.533463,348.169983 137.760101,346.640808 131.986740,345.111633 
	C131.986740,345.111633 131.625351,344.876007 131.282349,344.689636 
	C130.674026,344.254913 130.367798,344.184479 130.020645,344.292023 
	C129.853317,344.200684 129.685989,344.109375 129.005188,343.754791 
	C125.608604,342.024597 122.556389,340.809875 119.888550,339.021729 
	C117.062958,337.127747 114.925896,337.307312 112.903236,339.946625 
	C109.693390,342.067291 106.483543,344.187927 102.778618,346.666321 
	C100.534882,348.350586 98.786232,349.677124 97.037567,351.003662 
	C97.037567,351.003662 96.996841,350.984283 96.730148,351.026550 
	C96.267029,351.343414 96.070602,351.618011 95.874184,351.892639 
	C95.874191,351.892639 95.901978,351.955139 95.546677,351.982666 
	C89.325462,356.016449 83.459549,360.022766 77.382713,364.173126 
	C72.722237,357.415894 68.263382,350.951019 63.770260,344.436462 
	C66.785194,342.088898 69.384323,340.065125 71.983444,338.041321 
	C71.983444,338.041321 72.035759,338.052734 72.319237,338.000031 
	C72.823730,337.667664 73.044746,337.388000 73.265762,337.108337 
	C73.265770,337.108337 73.690018,337.058685 74.160255,336.832367 
	C79.511124,333.207672 84.376259,329.786774 89.275795,326.415863 
	C97.895683,320.485382 97.904488,320.498169 91.058281,311.897491 
	C87.385529,314.587921 83.691460,317.293976 79.737381,320.032043 
	C79.264465,320.325226 79.051575,320.586334 78.502594,320.925232 
	C74.081207,323.937347 69.995895,326.871704 65.910583,329.806030 
	C65.910583,329.806030 65.981453,329.877594 65.652161,329.891357 
	C64.917877,330.280029 64.512894,330.654877 64.107910,331.029755 
	C63.787640,331.151276 63.467373,331.272766 62.733421,331.692017 
	C61.536469,332.641113 60.753201,333.292419 59.969933,333.943756 
	C59.969933,333.943756 59.977852,333.984375 59.621330,334.031860 
	C58.189236,333.950836 56.565796,334.228302 56.123081,333.630859 
	C51.827381,327.833557 47.729576,321.889587 43.491322,315.868164 
	C48.647991,312.068298 53.395313,308.570068 58.142639,305.071838 
	C58.142647,305.071869 58.633011,304.977600 59.113068,304.698486 
	C63.678520,301.491638 67.763916,298.563934 71.849319,295.636230 
	C71.849312,295.636230 72.034248,295.595917 72.387573,295.380676 
	C74.226219,294.165680 75.650925,293.057129 77.209496,292.188904 
	C80.440605,290.388885 81.061142,288.051117 78.975861,284.996704 
	C78.920662,284.236145 78.865456,283.475555 78.648911,281.997375 
	C78.001450,278.850403 77.515327,276.421082 77.029205,273.991760 
	C76.971558,271.606934 76.913910,269.222107 76.844719,265.975525 
	C76.788773,263.084381 76.744370,261.055023 76.699959,259.025635 
	C76.850616,257.308624 77.001266,255.591599 77.298019,253.131989 
	C77.614769,250.923233 77.785423,249.457062 77.956078,247.990891 
	C77.956078,247.990891 78.163162,247.599396 78.282913,247.246643 
	C78.590889,246.631439 78.607216,246.358704 78.451630,246.075668 
	C78.656067,245.320374 78.860512,244.565094 79.262466,243.219666 
	C79.562569,242.080933 79.665146,241.532333 79.767731,240.983734 
	C79.904968,240.566589 80.042206,240.149429 80.440384,239.156250 
	C84.754189,230.372681 88.807037,222.165176 92.859894,213.957672 
	C93.251892,213.527344 93.643883,213.097015 94.385742,212.277588 
	C95.125038,211.252197 95.514473,210.615906 95.903900,209.979614 
	C95.903893,209.979614 95.992439,209.964767 96.198723,209.846191 
	C96.687752,209.542389 96.817047,209.281158 96.792877,208.943954 
	C96.792877,208.943954 96.935982,208.931839 97.193970,208.729828 
	C98.040077,207.745285 98.628204,206.962753 99.216331,206.180237 
	C99.216331,206.180237 99.137398,206.163300 99.443855,206.079254 
	C99.990921,205.631195 100.231537,205.267166 100.472137,204.903122 
	C100.472137,204.903122 100.542145,204.696793 100.464630,204.602005 
	C100.387115,204.507217 100.481148,204.497467 100.481148,204.497467 
	C100.953026,204.279083 101.424896,204.060699 102.300751,203.481110 
	C103.404152,202.393280 104.103561,201.666656 104.802979,200.940033 
	C105.819748,200.202713 106.836510,199.465393 108.251663,198.384674 
	C109.026527,197.671707 109.403000,197.302094 109.779465,196.932495 
	C110.116432,196.796753 110.453400,196.661026 111.237961,196.182312 
	C120.121269,189.571396 128.556976,183.303436 136.992676,177.035461 
	C136.992661,177.035461 137.027710,177.037766 137.360840,176.945801 
	C139.789078,175.211548 141.884216,173.569244 143.979355,171.926941 
	C144.825211,171.347702 145.671082,170.768448 147.061554,169.909851 
	C149.078125,168.423111 150.550110,167.215729 152.022095,166.008362 
	C152.531677,165.701752 153.041290,165.395172 154.055420,164.829834 
	C155.516815,163.981400 156.473679,163.391708 157.430542,162.802002 
	C157.430542,162.802002 157.732224,162.736252 158.026489,162.372192 
	C159.548050,161.007309 160.775345,160.006454 162.002640,159.005615 
	C162.795059,158.369370 163.587463,157.733124 164.985229,156.981537 
	C166.104248,156.256393 166.617920,155.646637 167.131577,155.036865 
	C168.015808,154.583344 168.900055,154.129822 170.278305,153.340149 
	C174.585083,151.031372 178.397842,149.058746 182.210602,147.086121 
	C182.210602,147.086121 182.635269,147.123993 183.161896,147.027786 
	C185.030548,146.566223 186.372559,146.200867 188.147949,145.886078 
	C193.040192,144.881241 197.499069,143.825836 201.957947,142.770432 
	C202.131989,142.651672 202.306030,142.532898 202.959488,142.334320 
	C203.438904,142.254532 203.907166,142.375504 204.281448,142.564362 
	C212.813629,143.088654 220.971512,143.424088 229.148987,143.764709 
	C229.168549,143.769913 229.206909,143.782974 229.432343,144.077393 
	C231.152390,144.547073 232.647018,144.722336 234.372177,144.849487 
	C234.602707,144.801361 235.055176,144.670547 235.055176,144.670547 
	C235.055176,144.670547 234.988098,144.850067 235.174866,145.241180 
	C238.681534,146.628876 242.001419,147.625427 245.321304,148.621979 
	C245.321304,148.621994 245.231781,148.673706 245.368866,148.951691 
	C249.459686,151.017960 253.413391,152.806259 257.367096,154.594543 
	C257.367096,154.594559 257.243683,154.692093 257.376526,154.921173 
	C258.061401,155.393356 258.613373,155.636459 259.165375,155.879562 
	C259.165375,155.879562 259.071259,155.904480 259.217621,156.084045 
	C259.704620,156.363083 260.045288,156.462555 260.385925,156.562027 
	C260.385925,156.562027 260.139771,156.784683 260.331665,156.959503 
	C261.064392,157.389359 261.605286,157.644424 262.146149,157.899490 
	C262.146149,157.899490 262.064270,157.917755 262.187439,158.181747 
	C263.221344,158.959885 264.132111,159.474030 265.042877,159.988190 
	C265.042877,159.988190 264.996399,160.008209 265.131287,160.212616 
	C265.573242,160.581192 265.880310,160.745377 266.187347,160.909561 
	C266.187347,160.909561 266.075928,160.922287 266.187683,161.169373 
	C266.995392,161.828827 267.691345,162.241180 268.387329,162.653534 
	C268.387329,162.653534 268.291443,162.695816 268.388062,162.897949 
	C268.798523,163.225037 269.112427,163.349976 269.426300,163.474915 
	C269.426300,163.474930 269.269745,163.836716 269.402283,163.970444 
	C270.033203,164.399872 270.531525,164.695572 271.029846,164.991272 
	C271.029846,164.991272 270.994659,165.005814 271.113220,165.218048 
	C271.519470,165.608719 271.807129,165.787170 272.094818,165.965622 
	C272.094818,165.965622 272.025238,165.973846 272.132141,166.180344 
	C272.522522,166.581848 272.806030,166.776871 273.089539,166.971878 
	C273.089539,166.971878 273.020996,166.979568 273.121826,167.184875 
	C273.493713,167.592529 273.764771,167.794876 274.035797,167.997208 
	C274.035797,167.997208 273.992676,168.006165 274.092346,168.218201 
	C274.456757,168.626266 274.721466,168.822281 274.986176,169.018280 
	C274.986176,169.018280 274.998779,169.001221 275.028320,169.314789 
	C275.668640,170.110199 276.279358,170.592041 276.890106,171.073883 
	C276.890106,171.073883 276.977539,171.037643 276.998779,171.369385 
	C277.453705,172.067459 277.887390,172.433807 278.321045,172.800140 
	C278.321045,172.800140 278.201752,172.816986 278.282379,173.021301 
	C278.636078,173.461578 278.909149,173.697540 279.182220,173.933487 
	C279.182220,173.933487 279.070648,173.923294 279.173279,174.130219 
	C279.564911,174.556320 279.853943,174.775513 280.142975,174.994705 
	C280.479645,175.047958 280.720001,175.229034 280.953949,176.071411 
	C281.479858,176.988220 281.915863,177.371521 282.351868,177.754837 
	C282.351868,177.754837 282.251617,177.788544 282.246582,178.091751 
	C282.988586,179.104156 283.735596,179.813339 284.482605,180.522522 
	C284.482605,180.522537 284.237854,180.698837 284.382629,180.905502 
	C284.785278,181.351868 285.043152,181.591583 285.301025,181.831284 
	C285.301025,181.831284 285.172852,181.828461 285.253052,182.043640 
	C285.617828,182.499451 285.902374,182.740067 286.186951,182.980698 
	C286.522583,183.042480 286.753632,183.231857 286.921265,184.126495 
	C287.670288,185.456116 288.378174,186.208023 289.086060,186.959930 
	C289.086060,186.959946 289.017059,186.982788 289.054016,187.301331 
	C290.096283,188.752014 291.101624,189.884140 292.106964,191.016266 
z"/>
<path fill="#0C0903" opacity="1.000000" stroke="none" 
	d="
M79.997406,320.000031 
	C83.691460,317.293976 87.385529,314.587921 91.058281,311.897491 
	C97.904488,320.498169 97.895683,320.485382 89.275795,326.415863 
	C84.376259,329.786774 79.511124,333.207672 74.304901,336.675232 
	C73.064232,334.977844 72.149162,333.211273 71.255394,331.485809 
	C79.291191,330.851410 79.291191,330.851410 76.441521,325.994141 
	C73.096413,327.368683 69.777214,328.732605 66.184296,329.951294 
	C69.995895,326.871704 74.081207,323.937347 78.583298,320.995697 
	C79.000076,320.988373 79.173576,321.114105 79.151520,321.463715 
	C80.345619,322.853699 81.561783,323.894073 83.186340,325.283783 
	C84.541496,320.796997 83.145782,319.780396 80.090637,320.155701 
	C80.060081,320.103485 79.997406,320.000031 79.997406,320.000031 
z"/>
<path fill="#0C0903" opacity="1.000000" stroke="none" 
	d="
M71.542351,338.022583 
	C69.384323,340.065125 66.785194,342.088898 63.770260,344.436462 
	C68.263382,350.951019 72.722237,357.415894 77.382713,364.173126 
	C83.459549,360.022766 89.325462,356.016449 95.525177,351.948547 
	C96.783760,357.562653 90.952560,357.424835 88.458481,360.079498 
	C85.632469,363.087463 81.553452,364.918213 77.767120,367.427917 
	C75.056030,365.084229 72.281250,362.685486 68.295700,359.240051 
	C67.821724,356.724091 67.736107,352.168518 62.196598,350.147827 
	C60.223915,349.428192 57.507183,344.986938 57.902676,344.500946 
	C59.980400,341.947968 62.772495,339.809631 65.679131,338.170258 
	C67.074051,337.383484 69.268761,338.014771 71.542351,338.022583 
z"/>
<path fill="#E5D622" opacity="1.000000" stroke="none" 
	d="
M253.972519,286.035736 
	C267.408539,286.188782 279.486694,281.873962 290.793030,274.933746 
	C292.165344,274.091309 293.772522,273.631561 295.644104,272.996521 
	C277.284393,286.694427 256.260712,290.596771 233.836334,286.448212 
	C225.486633,284.903473 217.526291,281.254059 209.190948,278.276489 
	C210.880371,278.432709 212.785614,278.811127 214.650940,279.332367 
	C222.495270,281.524261 230.327667,283.758759 238.909485,285.991425 
	C240.101654,286.008820 240.548782,286.012451 241.398743,286.026489 
	C242.877914,286.037781 243.954239,286.038635 245.350220,286.052673 
	C246.096359,286.068604 246.522858,286.071350 247.177032,286.255066 
	C248.287003,286.315338 249.169296,286.194641 250.444321,286.073853 
	C251.882202,286.061096 252.927353,286.048401 253.972519,286.035736 
z"/>
<path fill="#0C0903" opacity="1.000000" stroke="none" 
	d="
M57.743790,305.052185 
	C53.395313,308.570068 48.647991,312.068298 43.491322,315.868164 
	C47.729576,321.889587 51.827381,327.833557 56.123081,333.630859 
	C56.565796,334.228302 58.189236,333.950836 59.604717,334.019348 
	C58.985950,335.606903 58.027271,337.254395 56.770729,339.413757 
	C52.009514,333.398346 47.747036,327.906738 43.339966,322.533691 
	C42.446060,321.443909 41.006500,320.801697 39.420780,319.669067 
	C42.960583,319.033569 43.514759,317.169403 40.626770,313.774384 
	C46.524319,310.690582 51.934631,307.861572 57.743790,305.052185 
z"/>
<path fill="#0C0903" opacity="1.000000" stroke="none" 
	d="
M136.592682,177.022690 
	C128.556976,183.303436 120.121269,189.571396 111.354935,195.926178 
	C112.070541,193.471146 113.116768,190.929306 114.242973,188.193176 
	C121.535019,191.352020 118.553635,181.143982 122.871017,180.371048 
	C124.591026,181.127899 126.053230,181.771301 127.757713,182.207367 
	C128.177444,180.822800 128.354889,179.645599 128.627884,177.834366 
	C130.270142,177.655380 133.231430,177.332642 136.592682,177.022690 
z"/>
<path fill="#0C0903" opacity="1.000000" stroke="none" 
	d="
M203.907166,142.375504 
	C203.907166,142.375504 203.438904,142.254532 203.218979,142.153900 
	C204.174530,141.041809 205.393967,139.110962 206.518539,139.164703 
	C215.313065,139.585144 224.092438,140.353516 232.863220,141.158798 
	C233.349335,141.203415 233.717926,142.528030 234.063797,143.642365 
	C233.986374,144.027893 233.862427,144.152954 233.468674,144.152252 
	C231.785583,144.028671 230.496246,143.905823 229.206909,143.782974 
	C229.206909,143.782974 229.168549,143.769913 228.836578,143.533600 
	C220.305466,142.990021 212.106323,142.682755 203.907166,142.375504 
z"/>
<path fill="#E1D323" opacity="1.000000" stroke="none" 
	d="
M130.841476,293.727783 
	C128.462616,291.523590 125.114357,289.410065 123.665718,286.386414 
	C117.952446,274.461609 114.765114,262.140930 121.703651,249.172546 
	C118.827148,259.909027 118.048241,270.850128 123.012421,281.407227 
	C125.018562,285.673584 128.134201,289.418213 130.841476,293.727783 
z"/>
<path fill="#0C0903" opacity="1.000000" stroke="none" 
	d="
M92.507095,213.985550 
	C88.807037,222.165176 84.754189,230.372681 80.443054,238.825348 
	C78.838623,238.459198 77.495972,237.840042 76.145081,237.239441 
	C75.267662,236.849319 74.378227,236.486252 73.494171,236.111053 
	C74.299255,235.449127 75.240707,234.103180 75.888115,234.232239 
	C81.689957,235.388855 82.403084,230.864944 82.727455,227.400223 
	C83.337212,220.887070 87.476936,217.382355 92.507095,213.985550 
z"/>
<path fill="#E1D323" opacity="1.000000" stroke="none" 
	d="
M189.323273,191.905411 
	C192.796753,189.736862 196.399216,186.916702 200.484192,185.375717 
	C209.774475,181.871124 219.243835,182.702759 228.514618,185.875290 
	C230.014008,186.388382 231.277359,187.591293 232.817261,188.783081 
	C218.098862,182.932251 203.576111,182.505798 189.323273,191.905411 
z"/>
<path fill="#0C0903" opacity="1.000000" stroke="none" 
	d="
M193.005981,306.575531 
	C191.585815,305.202667 190.332428,303.255890 188.682175,301.741577 
	C187.983658,301.100555 186.450989,301.368591 184.776566,301.546631 
	C183.132660,302.553009 182.009644,303.236176 180.886627,303.919342 
	C180.886627,303.919342 180.956223,303.943451 180.652191,303.920593 
	C179.848602,304.226105 179.349045,304.554504 178.849487,304.882904 
	C178.849487,304.882904 178.935089,304.915283 178.616882,304.873230 
	C177.862885,304.851562 177.427094,304.871948 176.991302,304.892303 
	C177.379852,303.843811 177.634186,301.963959 178.177826,301.876190 
	C183.292038,301.050629 186.808090,298.350281 188.077362,293.391968 
	C189.480835,295.394806 190.521469,296.879852 192.198944,299.273712 
	C192.366501,300.695770 192.689392,303.436127 193.005981,306.575531 
z"/>
<path fill="#E1D323" opacity="1.000000" stroke="none" 
	d="
M176.652405,305.095398 
	C177.427094,304.871948 177.862885,304.851562 178.628952,304.829102 
	C174.455383,306.213623 170.017792,308.430511 165.432510,308.796295 
	C158.177277,309.375031 150.833176,308.666443 144.212250,304.194763 
	C154.662354,307.606018 165.350571,309.556702 176.652405,305.095398 
z"/>
<path fill="#0C0903" opacity="1.000000" stroke="none" 
	d="
M204.111664,321.720398 
	C201.611847,318.931458 199.254364,315.826874 196.781387,312.388000 
	C198.202744,311.074615 199.739563,310.095520 202.091675,308.597046 
	C202.828033,312.958649 203.541016,317.181702 204.111664,321.720398 
z"/>
<path fill="#0C0903" opacity="1.000000" stroke="none" 
	d="
M71.500870,295.473083 
	C67.763916,298.563934 63.678520,301.491638 59.282768,304.515320 
	C60.479214,302.295288 61.783154,299.806061 63.561943,297.722168 
	C64.812218,296.257477 66.708855,295.344482 68.601349,293.980042 
	C69.162445,294.272552 70.157433,294.791229 71.500870,295.473083 
z"/>
<path fill="#0C0903" opacity="1.000000" stroke="none" 
	d="
M113.250595,340.107849 
	C114.925896,337.307312 117.062958,337.127747 119.888550,339.021729 
	C122.556389,340.809875 125.608604,342.024597 128.719330,343.747528 
	C123.009445,346.133759 118.898682,340.755951 113.250595,340.107849 
z"/>
<path fill="#0C0903" opacity="1.000000" stroke="none" 
	d="
M181.803375,147.056900 
	C178.397842,149.058746 174.585083,151.031372 170.421936,153.074280 
	C170.071533,151.351044 170.071533,149.557526 170.071533,147.027664 
	C173.771561,147.027664 177.583832,147.027664 181.803375,147.056900 
z"/>
<path fill="#0C0903" opacity="1.000000" stroke="none" 
	d="
M132.087158,345.439087 
	C137.760101,346.640808 143.533463,348.169983 149.652405,349.860779 
	C143.552826,350.731262 137.221603,350.963196 132.087158,345.439087 
z"/>
<path fill="#0C0903" opacity="1.000000" stroke="none" 
	d="
M197.259659,344.029297 
	C200.699600,341.685150 204.503540,339.418457 208.645752,337.085938 
	C208.720215,342.118683 203.581894,345.324005 197.259659,344.029297 
z"/>
<path fill="#0C0903" opacity="1.000000" stroke="none" 
	d="
M153.342743,350.398590 
	C160.692886,350.065613 168.353195,349.941467 176.476776,349.864105 
	C176.577621,350.422577 176.203461,351.388062 175.854462,351.379089 
	C168.452240,351.187836 161.052841,350.886932 153.342743,350.398590 
z"/>
<path fill="#0C0903" opacity="1.000000" stroke="none" 
	d="
M78.640610,285.111755 
	C81.061142,288.051117 80.440605,290.388885 77.209496,292.188904 
	C75.650925,293.057129 74.226219,294.165680 72.400246,295.286865 
	C74.141510,292.014526 76.223434,288.620667 78.640610,285.111755 
z"/>
<path fill="#0C0903" opacity="1.000000" stroke="none" 
	d="
M209.931732,329.735352 
	C208.236282,327.988312 206.587524,325.875244 204.856476,323.427399 
	C206.955536,323.560394 209.136887,324.028229 211.529327,324.541321 
	C210.942764,326.367310 210.460587,327.868317 209.931732,329.735352 
z"/>
<path fill="#0C0903" opacity="1.000000" stroke="none" 
	d="
M76.764587,274.245361 
	C77.515327,276.421082 78.001450,278.850403 78.474022,281.656494 
	C72.313988,280.951172 75.361488,277.476715 76.764587,274.245361 
z"/>
<path fill="#0C0903" opacity="1.000000" stroke="none" 
	d="
M209.409927,337.001221 
	C209.986160,336.179657 210.935760,335.365753 212.142899,334.331116 
	C211.425583,333.132507 210.722610,331.957825 209.955185,330.446808 
	C211.492615,330.911804 213.094482,331.713135 214.696350,332.514496 
	C213.058670,334.012634 211.420990,335.510742 209.409927,337.001221 
z"/>
<path fill="#0C0903" opacity="1.000000" stroke="none" 
	d="
M196.532761,311.460388 
	C195.310760,310.452728 194.224030,309.055664 193.076996,307.331970 
	C194.896027,306.386719 196.775375,305.768158 199.475220,304.879547 
	C198.308868,307.452026 197.488449,309.261536 196.532761,311.460388 
z"/>
<path fill="#0C0903" opacity="1.000000" stroke="none" 
	d="
M143.707199,171.717087 
	C141.884216,173.569244 139.789078,175.211548 137.367966,176.929749 
	C136.997620,172.643509 139.540527,171.289612 143.707199,171.717087 
z"/>
<path fill="#E1D323" opacity="1.000000" stroke="none" 
	d="
M257.171326,154.320160 
	C253.413391,152.806259 249.459686,151.017960 245.376419,148.900543 
	C249.156448,150.396210 253.066025,152.220993 257.171326,154.320160 
z"/>
<path fill="#DED335" opacity="1.000000" stroke="none" 
	d="
M201.845551,142.611206 
	C197.499069,143.825836 193.040192,144.881241 188.226028,145.691193 
	C187.870743,145.445755 188.026184,145.055405 188.026184,145.055405 
	C188.477798,145.022003 188.929428,144.988586 189.944580,144.863647 
	C190.878250,144.737473 191.122910,144.544083 191.242096,144.191940 
	C191.242096,144.191940 191.163345,144.158920 191.527191,144.194946 
	C193.261597,143.842529 194.632141,143.454086 196.002701,143.065643 
	C196.767090,143.022293 197.531479,142.978928 198.987091,142.858215 
	C200.283218,142.568893 200.888107,142.356934 201.492996,142.144958 
	C201.492996,142.144958 201.733170,142.451981 201.845551,142.611206 
z"/>
<path fill="#0C0903" opacity="1.000000" stroke="none" 
	d="
M71.457291,246.253769 
	C72.240532,248.225815 72.808914,250.467072 73.377289,252.708328 
	C72.665672,252.803741 71.954048,252.899170 71.242432,252.994598 
	C71.242432,250.837387 71.242432,248.680191 71.457291,246.253769 
z"/>
<path fill="#0C0903" opacity="1.000000" stroke="none" 
	d="
M189.255005,347.197754 
	C191.094650,346.069580 193.205399,345.171722 195.666565,344.256622 
	C194.968994,347.573181 192.834854,348.696075 189.255005,347.197754 
z"/>
<path fill="#E1D323" opacity="1.000000" stroke="none" 
	d="
M245.113953,148.381897 
	C242.001419,147.625427 238.681534,146.628876 235.167450,145.336731 
	C235.621368,145.065018 236.269485,145.088898 237.498428,145.391602 
	C239.010986,145.909470 239.942703,146.148514 240.874420,146.387558 
	C242.218475,146.972321 243.562531,147.557083 245.113953,148.381897 
z"/>
<path fill="#E1D323" opacity="1.000000" stroke="none" 
	d="
M269.428314,213.080719 
	C271.173462,211.442062 273.253967,209.732178 275.702881,208.040497 
	C273.968719,209.708969 271.866211,211.359222 269.428314,213.080719 
z"/>
<path fill="#E1D323" opacity="1.000000" stroke="none" 
	d="
M134.351227,232.080353 
	C134.283447,228.733765 136.619171,227.640915 139.970947,227.315216 
	C138.459808,228.899765 136.569839,230.440033 134.351227,232.080353 
z"/>
<path fill="#0C0903" opacity="1.000000" stroke="none" 
	d="
M161.753143,158.785065 
	C160.775345,160.006454 159.548050,161.007309 158.068146,162.223541 
	C157.105835,159.301636 158.372711,158.045868 161.753143,158.785065 
z"/>
<path fill="#E5D622" opacity="1.000000" stroke="none" 
	d="
M168.626175,233.870102 
	C169.659454,235.916412 170.353683,238.059341 171.055420,240.582489 
	C170.087845,238.650482 165.381088,237.818878 168.626175,233.870102 
z"/>
<path fill="#E1D323" opacity="1.000000" stroke="none" 
	d="
M157.417786,215.065491 
	C158.974472,213.610016 160.862473,212.086349 163.111877,210.608887 
	C161.565216,212.102493 159.657150,213.549896 157.417786,215.065491 
z"/>
<path fill="#E5D622" opacity="1.000000" stroke="none" 
	d="
M192.030548,266.374878 
	C193.561981,267.171204 195.216110,268.273193 196.901947,269.746277 
	C195.340179,268.971741 193.746704,267.826141 192.030548,266.374878 
z"/>
<path fill="#0C0903" opacity="1.000000" stroke="none" 
	d="
M151.623840,166.000336 
	C150.550110,167.215729 149.078125,168.423111 147.293137,169.697510 
	C146.677292,166.573624 148.488892,165.762405 151.623840,166.000336 
z"/>
<path fill="#0C0903" opacity="1.000000" stroke="none" 
	d="
M195.913864,142.744324 
	C194.632141,143.454086 193.261597,143.842529 191.529068,144.237595 
	C191.981155,141.748169 193.103180,140.039764 195.913864,142.744324 
z"/>
<path fill="#E5D622" opacity="1.000000" stroke="none" 
	d="
M302.788452,268.300934 
	C304.103455,266.960144 305.724792,265.504181 307.719757,264.061523 
	C306.427185,265.445129 304.760986,266.815430 302.788452,268.300934 
z"/>
<path fill="#0C0903" opacity="1.000000" stroke="none" 
	d="
M221.348129,136.932678 
	C220.664261,136.500992 220.301666,136.095703 219.939072,135.690414 
	C221.298599,135.534378 222.658127,135.378342 224.017654,135.222305 
	C224.057205,135.606766 224.096771,135.991226 224.136322,136.375702 
	C223.314011,136.570160 222.491714,136.764618 221.348129,136.932678 
z"/>
<path fill="#0C0903" opacity="1.000000" stroke="none" 
	d="
M97.415619,351.010071 
	C98.786232,349.677124 100.534882,348.350586 102.612228,346.956329 
	C101.225159,348.264618 99.509407,349.640564 97.415619,351.010071 
z"/>
<path fill="#0C0903" opacity="1.000000" stroke="none" 
	d="
M181.192902,349.326477 
	C182.111908,348.692963 183.212814,348.334656 184.663803,348.013062 
	C184.785461,350.875977 183.752609,351.815796 181.192902,349.326477 
z"/>
<path fill="#E1D323" opacity="1.000000" stroke="none" 
	d="
M122.255524,248.786743 
	C122.845978,246.809113 123.690155,244.598434 124.858574,242.237320 
	C124.291634,244.242493 123.400436,246.398102 122.255524,248.786743 
z"/>
<path fill="#E1D323" opacity="1.000000" stroke="none" 
	d="
M291.349060,197.013336 
	C291.633911,195.785400 292.228027,194.492371 293.104736,192.973907 
	C296.501465,195.667648 292.453766,195.638504 291.349060,197.013336 
z"/>
<path fill="#0C0903" opacity="1.000000" stroke="none" 
	d="
M77.630569,248.103180 
	C77.785423,249.457062 77.614769,250.923233 77.249115,252.703079 
	C77.137756,251.416336 77.221413,249.815903 77.630569,248.103180 
z"/>
<path fill="#E1D323" opacity="1.000000" stroke="none" 
	d="
M257.732544,215.693985 
	C258.990387,216.157272 260.360901,216.945389 261.959900,218.009277 
	C259.062897,220.745056 259.270172,216.817841 257.732544,215.693985 
z"/>
<path fill="#0C0903" opacity="1.000000" stroke="none" 
	d="
M100.999115,196.999298 
	C101.219009,195.830521 101.438911,194.661743 101.658813,193.492966 
	C102.234375,193.709137 102.809937,193.925323 103.385498,194.141495 
	C102.803024,195.054718 102.220551,195.967926 101.319046,196.940567 
	C101.000000,197.000000 100.999115,196.999298 100.999115,196.999298 
z"/>
<path fill="#E5D622" opacity="1.000000" stroke="none" 
	d="
M187.876770,262.486816 
	C189.135696,263.252380 190.509262,264.323334 191.912003,265.746094 
	C190.624588,264.996002 189.307999,263.894104 187.876770,262.486816 
z"/>
<path fill="#E1D323" opacity="1.000000" stroke="none" 
	d="
M280.367554,205.049957 
	C281.553223,203.820297 283.069366,202.522202 284.945496,201.253494 
	C283.769714,202.515778 282.233887,203.748657 280.367554,205.049957 
z"/>
<path fill="#E1D323" opacity="1.000000" stroke="none" 
	d="
M240.734100,194.674545 
	C241.997330,195.430542 243.398865,196.477707 244.812164,197.877930 
	C243.506729,197.142563 242.189560,196.054138 240.734100,194.674545 
z"/>
<path fill="#E1D323" opacity="1.000000" stroke="none" 
	d="
M143.920990,303.641296 
	C142.256943,303.011688 140.387451,302.115692 138.412201,300.882263 
	C140.109482,301.488190 141.912521,302.431519 143.920990,303.641296 
z"/>
<path fill="#0C0903" opacity="1.000000" stroke="none" 
	d="
M187.794006,144.852829 
	C188.026184,145.055405 187.870743,145.445755 187.792664,145.640625 
	C186.372559,146.200867 185.030548,146.566223 183.338470,146.908356 
	C184.512878,146.140167 186.037354,145.395218 187.794006,144.852829 
z"/>
<path fill="#E5D622" opacity="1.000000" stroke="none" 
	d="
M204.170258,275.268799 
	C205.611572,275.768829 207.232391,276.545959 208.933777,277.661774 
	C207.459473,277.182281 205.904633,276.364075 204.170258,275.268799 
z"/>
<path fill="#0C0903" opacity="1.000000" stroke="none" 
	d="
M124.686783,348.673187 
	C125.387444,348.806152 125.888519,349.134857 126.389603,349.463562 
	C126.076538,349.771973 125.763458,350.080414 125.450378,350.388855 
	C125.129311,349.882172 124.808258,349.375549 124.686783,348.673187 
z"/>
<path fill="#E1D323" opacity="1.000000" stroke="none" 
	d="
M135.955353,298.653473 
	C134.720779,297.906586 133.362076,296.864441 131.981766,295.473938 
	C133.250519,296.203125 134.540863,297.280670 135.955353,298.653473 
z"/>
<path fill="#E1D323" opacity="1.000000" stroke="none" 
	d="
M126.365784,240.965118 
	C126.866592,239.775085 127.656151,238.432022 128.813126,237.044769 
	C128.338531,238.271088 127.496544,239.541595 126.365784,240.965118 
z"/>
<path fill="#E1D323" opacity="1.000000" stroke="none" 
	d="
M168.383759,207.062042 
	C169.185165,206.107193 170.310410,205.097336 171.805481,204.108139 
	C171.019424,205.088226 169.863525,206.047623 168.383759,207.062042 
z"/>
<path fill="#0C0903" opacity="1.000000" stroke="none" 
	d="
M69.247742,289.528015 
	C69.419609,288.775696 69.674065,288.292145 69.928513,287.808563 
	C70.224869,288.252167 70.521217,288.695801 70.817581,289.139404 
	C70.321831,289.358551 69.826088,289.577667 69.247742,289.528015 
z"/>
<path fill="#E5D622" opacity="1.000000" stroke="none" 
	d="
M174.079895,245.288940 
	C175.019180,246.082626 176.013824,247.195297 177.000153,248.665588 
	C176.039642,247.884811 175.087448,246.746368 174.079895,245.288940 
z"/>
<path fill="#E1D323" opacity="1.000000" stroke="none" 
	d="
M149.318573,220.961685 
	C150.118973,220.023193 151.239624,219.027359 152.722168,218.042267 
	C151.935669,219.003464 150.787247,219.953903 149.318573,220.961685 
z"/>
<path fill="#0C0903" opacity="1.000000" stroke="none" 
	d="
M217.673004,335.313416 
	C217.806076,334.612518 218.134918,334.111237 218.463760,333.609955 
	C218.772339,333.923126 219.080902,334.236328 219.389481,334.549500 
	C218.882568,334.870697 218.375656,335.191864 217.673004,335.313416 
z"/>
<path fill="#E1D323" opacity="1.000000" stroke="none" 
	d="
M163.961655,210.373962 
	C164.916183,209.369797 166.156830,208.232666 167.756744,207.083954 
	C166.826584,208.128586 165.537170,209.184784 163.961655,210.373962 
z"/>
<path fill="#E5D622" opacity="1.000000" stroke="none" 
	d="
M197.013794,270.377228 
	C198.216644,270.833984 199.543900,271.592468 200.921219,272.704926 
	C199.693573,272.265594 198.415878,271.472290 197.013794,270.377228 
z"/>
<path fill="#E1D323" opacity="1.000000" stroke="none" 
	d="
M264.261169,216.948318 
	C264.869720,216.123856 265.783844,215.243011 267.062683,214.473129 
	C266.473816,215.353363 265.520264,216.122650 264.261169,216.948318 
z"/>
<path fill="#0C0903" opacity="1.000000" stroke="none" 
	d="
M157.121338,162.662750 
	C156.473679,163.391708 155.516815,163.981400 154.267960,164.609406 
	C154.921371,163.939621 155.866760,163.231567 157.121338,162.662750 
z"/>
<path fill="#E1D323" opacity="1.000000" stroke="none" 
	d="
M248.054993,202.314331 
	C248.966034,203.119354 249.953552,204.239197 250.954315,205.706329 
	C250.022217,204.912125 249.076843,203.770645 248.054993,202.314331 
z"/>
<path fill="#E1D323" opacity="1.000000" stroke="none" 
	d="
M174.251572,202.855118 
	C175.046875,201.925659 176.159012,200.944077 177.624084,199.965759 
	C176.840820,200.913681 175.704605,201.858337 174.251572,202.855118 
z"/>
<path fill="#E1D323" opacity="1.000000" stroke="none" 
	d="
M287.329895,199.982224 
	C288.133301,199.058548 289.256134,198.070343 290.727753,197.063446 
	C289.934113,198.002396 288.791718,198.960052 287.329895,199.982224 
z"/>
<path fill="#0C0903" opacity="1.000000" stroke="none" 
	d="
M76.513474,259.333740 
	C76.744370,261.055023 76.788773,263.084381 76.740814,265.539734 
	C76.541306,263.857727 76.434143,261.749786 76.513474,259.333740 
z"/>
<path fill="#E1D323" opacity="1.000000" stroke="none" 
	d="
M292.028076,190.695831 
	C291.101624,189.884140 290.096283,188.752014 289.070282,187.268829 
	C290.016113,188.070328 290.982635,189.222855 292.028076,190.695831 
z"/>
<path fill="#E5D622" opacity="1.000000" stroke="none" 
	d="
M180.020325,253.319122 
	C180.814499,253.935791 181.676376,254.859024 182.511963,256.129303 
	C181.686462,255.526123 180.887253,254.575912 180.020325,253.319122 
z"/>
<path fill="#0C0903" opacity="1.000000" stroke="none" 
	d="
M89.265732,365.348358 
	C89.767609,365.609009 90.032921,365.927185 90.298233,366.245392 
	C89.875343,366.361603 89.452454,366.477814 89.029564,366.594055 
	C89.029434,366.197998 89.029305,365.801971 89.265732,365.348358 
z"/>
<path fill="#E1D323" opacity="1.000000" stroke="none" 
	d="
M236.281937,191.178619 
	C237.236038,191.543762 238.370346,192.162308 239.511932,193.127625 
	C238.500168,192.793610 237.481155,192.112839 236.281937,191.178619 
z"/>
<path fill="#0C0903" opacity="1.000000" stroke="none" 
	d="
M60.318100,333.948547 
	C60.753201,333.292419 61.536469,332.641113 62.626556,331.933960 
	C62.177673,332.569855 61.421974,333.261597 60.318100,333.948547 
z"/>
<path fill="#E1D323" opacity="1.000000" stroke="none" 
	d="
M142.348755,226.024536 
	C142.790512,225.384476 143.540390,224.685867 144.634766,223.977875 
	C144.205154,224.634323 143.431030,225.300156 142.348755,226.024536 
z"/>
<path fill="#E5D622" opacity="1.000000" stroke="none" 
	d="
M171.905594,242.318848 
	C172.558395,242.764633 173.284790,243.520721 174.020828,244.628052 
	C173.346695,244.195908 172.662933,243.412521 171.905594,242.318848 
z"/>
<path fill="#E1D323" opacity="1.000000" stroke="none" 
	d="
M146.381866,223.074585 
	C146.822830,222.417603 147.575134,221.708435 148.674957,221.001160 
	C148.246048,221.676178 147.469604,222.349289 146.381866,223.074585 
z"/>
<path fill="#E1D323" opacity="1.000000" stroke="none" 
	d="
M284.372040,180.236649 
	C283.735596,179.813339 282.988586,179.104156 282.268036,178.043411 
	C282.950165,178.444839 283.605835,179.197815 284.372040,180.236649 
z"/>
<path fill="#E5D622" opacity="1.000000" stroke="none" 
	d="
M201.079010,273.325623 
	C201.907623,273.473572 202.871140,273.909607 203.923431,274.674011 
	C203.079422,274.539490 202.146667,274.076599 201.079010,273.325623 
z"/>
<path fill="#0C0903" opacity="1.000000" stroke="none" 
	d="
M104.460052,200.970993 
	C104.103561,201.666656 103.404152,202.393280 102.414291,203.216858 
	C102.788269,202.543182 103.452705,201.772568 104.460052,200.970993 
z"/>
<path fill="#0C0903" opacity="1.000000" stroke="none" 
	d="
M98.886574,206.207153 
	C98.628204,206.962753 98.040077,207.745285 97.184174,208.658691 
	C97.463211,207.937744 98.010010,207.085922 98.886574,206.207153 
z"/>
<path fill="#E1D323" opacity="1.000000" stroke="none" 
	d="
M289.032654,186.651031 
	C288.378174,186.208023 287.670288,185.456116 286.958252,184.355972 
	C287.629211,184.785873 288.304230,185.564011 289.032654,186.651031 
z"/>
<path fill="#E1D323" opacity="1.000000" stroke="none" 
	d="
M183.430359,196.127899 
	C183.869934,195.473434 184.618835,194.751312 185.721191,194.036804 
	C185.296326,194.716354 184.518005,195.388306 183.430359,196.127899 
z"/>
<path fill="#E1D323" opacity="1.000000" stroke="none" 
	d="
M186.339676,194.025116 
	C186.784164,193.374405 187.537247,192.671616 188.635132,191.971191 
	C188.202713,192.640045 187.425491,193.306549 186.339676,194.025116 
z"/>
<path fill="#E1D323" opacity="1.000000" stroke="none" 
	d="
M253.952438,210.361969 
	C254.592957,210.812393 255.295746,211.571121 256.000305,212.677307 
	C255.339630,212.239944 254.677170,211.455124 253.952438,210.361969 
z"/>
<path fill="#E1D323" opacity="1.000000" stroke="none" 
	d="
M276.353149,208.032471 
	C276.791595,207.375275 277.538391,206.669861 278.630981,205.970001 
	C278.204987,206.645126 277.433228,207.314682 276.353149,208.032471 
z"/>
<path fill="#0C0903" opacity="1.000000" stroke="none" 
	d="
M95.599007,209.989670 
	C95.514473,210.615906 95.125038,211.252197 94.466965,211.991272 
	C94.563583,211.395966 94.928848,210.697845 95.599007,209.989670 
z"/>
<path fill="#0C0903" opacity="1.000000" stroke="none" 
	d="
M79.519150,241.045563 
	C79.665146,241.532333 79.562569,242.080933 79.247940,242.823425 
	C79.114113,242.380676 79.192337,241.744034 79.519150,241.045563 
z"/>
<path fill="#E1D323" opacity="1.000000" stroke="none" 
	d="
M245.799377,199.493011 
	C246.450531,199.914993 247.191986,200.638763 247.965729,201.692825 
	C247.295242,201.280365 246.592468,200.537582 245.799377,199.493011 
z"/>
<path fill="#0C0903" opacity="1.000000" stroke="none" 
	d="
M101.000397,197.000397 
	C100.663139,197.448166 100.325478,197.895538 99.987823,198.342896 
	C99.876236,198.241348 99.764656,198.139801 99.653091,198.038239 
	C99.941528,197.727234 100.229965,197.416229 100.758759,197.052246 
	C100.999115,196.999298 101.000000,197.000000 101.000397,197.000397 
z"/>
<path fill="#E5D622" opacity="1.000000" stroke="none" 
	d="
M300.327087,270.004761 
	C300.606293,269.489563 301.174042,268.928070 302.070679,268.431580 
	C301.804962,268.983917 301.210327,269.471161 300.327087,270.004761 
z"/>
<path fill="#E1D323" opacity="1.000000" stroke="none" 
	d="
M179.350616,199.067902 
	C179.816589,198.428467 180.595856,197.731766 181.704132,197.021622 
	C181.243393,197.675674 180.453659,198.343155 179.350616,199.067902 
z"/>
<path fill="#E5D622" opacity="1.000000" stroke="none" 
	d="
M177.027893,249.300369 
	C177.563599,249.558746 178.149384,250.113831 178.706390,251.001266 
	C178.144379,250.754776 177.611160,250.175934 177.027893,249.300369 
z"/>
<path fill="#E1D323" opacity="1.000000" stroke="none" 
	d="
M264.903015,159.702209 
	C264.132111,159.474030 263.221344,158.959885 262.182526,158.140076 
	C262.957367,158.361694 263.860229,158.888962 264.903015,159.702209 
z"/>
<path fill="#E5D622" opacity="1.000000" stroke="none" 
	d="
M185.957916,260.358093 
	C186.512085,260.567871 187.143555,261.073792 187.799042,261.910126 
	C187.227112,261.711761 186.631180,261.182983 185.957916,260.358093 
z"/>
<path fill="#0C0903" opacity="1.000000" stroke="none" 
	d="
M166.877991,154.946655 
	C166.617920,155.646637 166.104248,156.256393 165.288422,156.843872 
	C165.532303,156.166534 166.078354,155.511490 166.877991,154.946655 
z"/>
<path fill="#0C0903" opacity="1.000000" stroke="none" 
	d="
M165.663666,150.269470 
	C165.726196,149.950394 165.907150,149.758041 166.088089,149.565689 
	C166.189301,149.674530 166.290527,149.783386 166.391739,149.892227 
	C166.188538,150.060226 165.985321,150.228226 165.663666,150.269470 
z"/>
<path fill="#0C0903" opacity="1.000000" stroke="none" 
	d="
M55.570930,299.958557 
	C55.838432,299.772980 56.101974,299.762695 56.365517,299.752411 
	C56.361946,299.901184 56.358379,300.049927 56.354813,300.198700 
	C56.092197,300.177094 55.829586,300.155457 55.570930,299.958557 
z"/>
<path fill="#E1D323" opacity="1.000000" stroke="none" 
	d="
M250.989517,206.323364 
	C251.538315,206.574890 252.131393,207.125305 252.692001,208.008636 
	C252.117630,207.768433 251.575714,207.195343 250.989517,206.323364 
z"/>
<path fill="#0C0903" opacity="1.000000" stroke="none" 
	d="
M141.663696,168.269440 
	C141.726212,167.950348 141.907150,167.758011 142.088074,167.565674 
	C142.189270,167.674515 142.290466,167.783356 142.391678,167.892212 
	C142.188477,168.060196 141.985291,168.228180 141.663696,168.269440 
z"/>
<path fill="#E5D622" opacity="1.000000" stroke="none" 
	d="
M184.061676,258.292786 
	C184.607498,258.493835 185.232635,258.985565 185.895294,259.797791 
	C185.335556,259.606720 184.738281,259.095093 184.061676,258.292786 
z"/>
<path fill="#E1D323" opacity="1.000000" stroke="none" 
	d="
M276.825195,170.786011 
	C276.279358,170.592041 275.668640,170.110199 275.018677,169.319214 
	C275.573090,169.506088 276.166687,170.002106 276.825195,170.786011 
z"/>
<path fill="#0C0903" opacity="1.000000" stroke="none" 
	d="
M240.658203,146.080048 
	C239.942703,146.148514 239.010986,145.909470 237.825455,145.412079 
	C238.528427,145.360001 239.485199,145.566269 240.658203,146.080048 
z"/>
<path fill="#E1D323" opacity="1.000000" stroke="none" 
	d="
M131.293304,234.931747 
	C131.481705,234.382248 131.953583,233.734589 132.745789,233.034485 
	C132.569672,233.599228 132.073227,234.216400 131.293304,234.931747 
z"/>
<path fill="#E1D323" opacity="1.000000" stroke="none" 
	d="
M268.249939,162.376556 
	C267.691345,162.241180 266.995392,161.828827 266.185760,161.113342 
	C266.752258,161.239990 267.432434,161.669785 268.249939,162.376556 
z"/>
<path fill="#E1D323" opacity="1.000000" stroke="none" 
	d="
M155.214020,216.727539 
	C155.455322,216.228745 155.984558,215.672180 156.822083,215.105652 
	C156.587570,215.620361 156.044769,216.145065 155.214020,216.727539 
z"/>
<path fill="#E1D323" opacity="1.000000" stroke="none" 
	d="
M252.677704,208.570480 
	C253.023636,208.684082 253.442169,209.089737 253.899338,209.802917 
	C253.542068,209.694473 253.146179,209.278503 252.677704,208.570480 
z"/>
<path fill="#E1D323" opacity="1.000000" stroke="none" 
	d="
M278.243713,172.521133 
	C277.887390,172.433807 277.453705,172.067459 276.970093,171.407013 
	C277.335571,171.489319 277.751007,171.865723 278.243713,172.521133 
z"/>
<path fill="#E1D323" opacity="1.000000" stroke="none" 
	d="
M282.279968,177.468689 
	C281.915863,177.371521 281.479858,176.988220 280.998352,176.300690 
	C281.371246,176.391846 281.789673,176.787201 282.279968,177.468689 
z"/>
<path fill="#E1D323" opacity="1.000000" stroke="none" 
	d="
M270.938538,164.722641 
	C270.531525,164.695572 270.033203,164.399872 269.498901,163.798615 
	C269.924347,163.813385 270.385773,164.133698 270.938538,164.722641 
z"/>
<path fill="#0C0903" opacity="1.000000" stroke="none" 
	d="
M64.387299,330.982910 
	C64.512894,330.654877 64.917877,330.280029 65.605652,329.872131 
	C65.481186,330.204773 65.073944,330.570435 64.387299,330.982910 
z"/>
<path fill="#E1D323" opacity="1.000000" stroke="none" 
	d="
M233.074173,189.323547 
	C233.492966,189.252502 234.070282,189.451263 234.815979,189.918457 
	C234.400482,189.989014 233.816589,189.791183 233.074173,189.323547 
z"/>
<path fill="#0C0903" opacity="1.000000" stroke="none" 
	d="
M109.513229,196.991913 
	C109.403000,197.302094 109.026527,197.671707 108.389893,198.098663 
	C108.502144,197.787781 108.874565,197.419540 109.513229,196.991913 
z"/>
<path fill="#E5D622" opacity="1.000000" stroke="none" 
	d="
M182.625229,256.757538 
	C182.968414,256.811676 183.430542,257.118652 183.945023,257.721802 
	C183.579636,257.682129 183.161911,257.346252 182.625229,256.757538 
z"/>
<path fill="#0C0903" opacity="1.000000" stroke="none" 
	d="
M201.165710,142.116241 
	C200.888107,142.356934 200.283218,142.568893 199.353668,142.743286 
	C199.632172,142.499634 200.235306,142.293579 201.165710,142.116241 
z"/>
<path fill="#E5D622" opacity="1.000000" stroke="none" 
	d="
M178.690582,251.545898 
	C179.042297,251.652832 179.467163,252.048721 179.937775,252.747406 
	C179.576920,252.645081 179.170334,252.239960 178.690582,251.545898 
z"/>
<path fill="#E1D323" opacity="1.000000" stroke="none" 
	d="
M262.024231,157.629272 
	C261.605286,157.644424 261.064392,157.389359 260.437500,156.831696 
	C260.868439,156.805725 261.385406,157.082397 262.024231,157.629272 
z"/>
<path fill="#E1D323" opacity="1.000000" stroke="none" 
	d="
M285.515076,201.286163 
	C285.628906,200.932220 286.034515,200.511688 286.745758,200.054016 
	C286.636566,200.417770 286.221710,200.818665 285.515076,201.286163 
z"/>
<path fill="#E1D323" opacity="1.000000" stroke="none" 
	d="
M267.807526,214.401443 
	C267.880676,214.061462 268.211151,213.613220 268.846008,213.132614 
	C268.788544,213.497879 268.426666,213.895523 267.807526,214.401443 
z"/>
<path fill="#E1D323" opacity="1.000000" stroke="none" 
	d="
M140.583740,227.326752 
	C140.686264,226.972931 141.074799,226.541061 141.771484,226.078751 
	C141.676361,226.448456 141.273056,226.848587 140.583740,227.326752 
z"/>
<path fill="#E1D323" opacity="1.000000" stroke="none" 
	d="
M259.037476,155.608643 
	C258.613373,155.636459 258.061401,155.393356 257.408997,154.849548 
	C257.842255,154.811798 258.375885,155.074753 259.037476,155.608643 
z"/>
<path fill="#0C0903" opacity="1.000000" stroke="none" 
	d="
M100.368546,204.550690 
	C100.180397,204.142868 100.010818,203.691589 99.841240,203.240311 
	C99.978676,203.509979 100.116112,203.779633 100.367348,204.273376 
	C100.481148,204.497467 100.387115,204.507217 100.368546,204.550690 
z"/>
<path fill="#E5D622" opacity="1.000000" stroke="none" 
	d="
M171.552704,231.765015 
	C171.429382,232.116074 171.012833,232.533493 170.289291,232.990967 
	C170.408020,232.631119 170.833740,232.231232 171.552704,231.765015 
z"/>
<path fill="#E1D323" opacity="1.000000" stroke="none" 
	d="
M172.365082,204.155487 
	C172.486038,203.803101 172.897385,203.399933 173.605667,202.961319 
	C173.486908,203.318817 173.071198,203.711761 172.365082,204.155487 
z"/>
<path fill="#E5D622" opacity="1.000000" stroke="none" 
	d="
M175.607407,228.806671 
	C175.486526,229.163879 175.068253,229.564590 174.351257,230.001190 
	C174.471695,229.641464 174.890854,229.245819 175.607407,228.806671 
z"/>
<path fill="#0C0903" opacity="1.000000" stroke="none" 
	d="
M234.931427,144.506699 
	C235.055176,144.670547 234.602707,144.801361 234.301270,144.663940 
	C233.999847,144.526535 233.862427,144.152954 233.862427,144.152954 
	C233.862427,144.152954 233.986374,144.027893 234.052429,143.967545 
	C234.376724,144.007339 234.606461,144.152557 234.931427,144.506699 
z"/>
<path fill="#E5D622" opacity="1.000000" stroke="none" 
	d="
M299.129089,270.963287 
	C299.079529,270.731598 299.317535,270.472351 299.804016,270.121826 
	C299.840515,270.332245 299.628571,270.634003 299.129089,270.963287 
z"/>
<path fill="#0C0903" opacity="1.000000" stroke="none" 
	d="
M96.099472,351.804382 
	C96.070602,351.618011 96.267029,351.343414 96.727722,351.048950 
	C96.832581,351.319275 96.610176,351.548279 96.099472,351.804382 
z"/>
<path fill="#E1D323" opacity="1.000000" stroke="none" 
	d="
M273.022614,166.702820 
	C272.806030,166.776871 272.522522,166.581848 272.134949,166.145416 
	C272.339172,166.080597 272.647430,166.257187 273.022614,166.702820 
z"/>
<path fill="#E1D323" opacity="1.000000" stroke="none" 
	d="
M273.973053,167.732193 
	C273.764771,167.794876 273.493713,167.592529 273.126160,167.150681 
	C273.323181,167.096497 273.616760,167.281830 273.973053,167.732193 
z"/>
<path fill="#0C0903" opacity="1.000000" stroke="none" 
	d="
M191.013580,144.211685 
	C191.122910,144.544083 190.878250,144.737473 190.264114,144.744171 
	C190.226440,144.477905 190.481415,144.316299 191.013580,144.211685 
z"/>
<path fill="#0C0903" opacity="1.000000" stroke="none" 
	d="
M177.096710,349.919678 
	C177.007599,349.626648 177.214737,349.452637 177.729950,349.463562 
	C177.763474,349.728638 177.548447,349.858704 177.096710,349.919678 
z"/>
<path fill="#E1D323" opacity="1.000000" stroke="none" 
	d="
M272.025696,165.699249 
	C271.807129,165.787170 271.519470,165.608719 271.116211,165.199219 
	C271.319305,165.123077 271.637939,165.277969 272.025696,165.699249 
z"/>
<path fill="#0C0903" opacity="1.000000" stroke="none" 
	d="
M185.934692,347.857147 
	C185.955872,347.681915 186.213638,347.482635 186.722839,347.313141 
	C186.754898,347.585419 186.487228,347.748810 185.934692,347.857147 
z"/>
<path fill="#E1D323" opacity="1.000000" stroke="none" 
	d="
M260.238220,156.332336 
	C260.045288,156.462555 259.704620,156.363083 259.209961,156.035950 
	C259.400787,155.906433 259.745667,156.004547 260.238220,156.332336 
z"/>
<path fill="#E1D323" opacity="1.000000" stroke="none" 
	d="
M269.307739,163.255295 
	C269.112427,163.349976 268.798523,163.225037 268.401764,162.847382 
	C268.674255,162.612823 268.964355,162.759811 269.307739,163.255295 
z"/>
<path fill="#0C0903" opacity="1.000000" stroke="none" 
	d="
M130.182358,344.454224 
	C130.367798,344.184479 130.674026,344.254913 131.067810,344.712280 
	C130.880768,344.907593 130.596695,344.805969 130.182358,344.454224 
z"/>
<path fill="#0C0903" opacity="1.000000" stroke="none" 
	d="
M117.491882,344.487457 
	C117.513824,344.478729 117.469940,344.496185 117.491882,344.487457 
z"/>
<path fill="#E1D323" opacity="1.000000" stroke="none" 
	d="
M266.089355,160.647644 
	C265.880310,160.745377 265.573242,160.581192 265.132477,160.187332 
	C265.329620,160.100357 265.660492,160.243042 266.089355,160.647644 
z"/>
<path fill="#0C0903" opacity="1.000000" stroke="none" 
	d="
M73.022430,337.195679 
	C73.044746,337.388000 72.823730,337.667664 72.326691,337.974304 
	C72.293472,337.761871 72.536285,337.522430 73.022430,337.195679 
z"/>
<path fill="#E1D323" opacity="1.000000" stroke="none" 
	d="
M244.821320,198.411163 
	C245.041534,198.347122 245.333694,198.558441 245.719681,199.029572 
	C245.506760,199.088425 245.200012,198.887482 244.821320,198.411163 
z"/>
<path fill="#0C0903" opacity="1.000000" stroke="none" 
	d="
M96.613235,209.057922 
	C96.817047,209.281158 96.687752,209.542389 96.190247,209.802124 
	C96.058731,209.596542 96.211433,209.361649 96.613235,209.057922 
z"/>
<path fill="#E1D323" opacity="1.000000" stroke="none" 
	d="
M256.017426,213.265732 
	C256.236328,213.223190 256.493103,213.457352 256.824829,213.946243 
	C256.618286,213.981461 256.336761,213.761948 256.017426,213.265732 
z"/>
<path fill="#E1D323" opacity="1.000000" stroke="none" 
	d="
M256.840698,214.350723 
	C257.057495,214.326706 257.318909,214.579498 257.614838,215.109894 
	C257.394684,215.134171 257.139984,214.880859 256.840698,214.350723 
z"/>
<path fill="#E1D323" opacity="1.000000" stroke="none" 
	d="
M279.258179,205.944580 
	C279.200806,205.714920 279.416718,205.458420 279.877014,205.124084 
	C279.924774,205.336746 279.728149,205.627243 279.258179,205.944580 
z"/>
<path fill="#E1D323" opacity="1.000000" stroke="none" 
	d="
M153.312927,218.047119 
	C153.280518,217.816132 153.548172,217.534821 154.103546,217.179413 
	C154.131821,217.402466 153.872406,217.699631 153.312927,218.047119 
z"/>
<path fill="#0C0903" opacity="1.000000" stroke="none" 
	d="
M100.190186,205.063629 
	C100.231537,205.267166 99.990921,205.631195 99.446136,206.119568 
	C99.397377,205.903961 99.652794,205.564041 100.190186,205.063629 
z"/>
<path fill="#E1D323" opacity="1.000000" stroke="none" 
	d="
M145.244568,223.942383 
	C145.194229,223.716751 145.415894,223.460342 145.887207,223.133545 
	C145.930099,223.345963 145.723343,223.628784 145.244568,223.942383 
z"/>
<path fill="#E5D622" opacity="1.000000" stroke="none" 
	d="
M176.706573,227.942078 
	C176.753143,228.161362 176.520355,228.436081 176.024796,228.794250 
	C175.983765,228.584305 176.205490,228.290909 176.706573,227.942078 
z"/>
<path fill="#E5D622" opacity="1.000000" stroke="none" 
	d="
M173.756775,230.091003 
	C173.805679,230.307785 173.590515,230.557953 173.133881,230.882004 
	C173.092514,230.678741 173.292603,230.401581 173.756775,230.091003 
z"/>
<path fill="#E5D622" opacity="1.000000" stroke="none" 
	d="
M172.696045,230.929291 
	C172.735809,231.157043 172.489929,231.417221 171.979767,231.748245 
	C171.947113,231.533295 172.178757,231.247498 172.696045,230.929291 
z"/>
<path fill="#E1D323" opacity="1.000000" stroke="none" 
	d="
M130.256912,236.034424 
	C130.181198,235.827454 130.369583,235.534103 130.795471,235.121582 
	C130.862305,235.317612 130.691666,235.632812 130.256912,236.034424 
z"/>
<path fill="#E1D323" opacity="1.000000" stroke="none" 
	d="
M125.358246,242.084320 
	C125.284050,241.884140 125.480324,241.596436 125.900604,241.168365 
	C125.959305,241.350952 125.794014,241.673889 125.358246,242.084320 
z"/>
<path fill="#E1D323" opacity="1.000000" stroke="none" 
	d="
M178.250427,199.945343 
	C178.196411,199.715134 178.416397,199.460663 178.881470,199.128952 
	C178.925842,199.341492 178.725128,199.631302 178.250427,199.945343 
z"/>
<path fill="#0C0903" opacity="1.000000" stroke="none" 
	d="
M78.326767,246.231903 
	C78.607216,246.358704 78.590889,246.631439 78.236572,247.030090 
	C78.028282,246.892395 78.072090,246.632996 78.326767,246.231903 
z"/>
<path fill="#E1D323" opacity="1.000000" stroke="none" 
	d="
M274.935364,168.757507 
	C274.721466,168.822281 274.456757,168.626266 274.098511,168.197052 
	C274.298157,168.141479 274.591339,168.319092 274.935364,168.757507 
z"/>
<path fill="#E1D323" opacity="1.000000" stroke="none" 
	d="
M182.276001,196.999725 
	C182.230804,196.773819 182.465668,196.516846 182.955231,196.182922 
	C182.991989,196.393524 182.774033,196.681091 182.276001,196.999725 
z"/>
<path fill="#E5D622" opacity="1.000000" stroke="none" 
	d="
M308.306366,264.046295 
	C308.298431,263.836975 308.587799,263.578735 309.165710,263.266052 
	C309.170685,263.473541 308.887177,263.735474 308.306366,264.046295 
z"/>
<path fill="#0C0903" opacity="1.000000" stroke="none" 
	d="
M108.512459,195.492035 
	C108.521255,195.514038 108.503662,195.470016 108.512459,195.492035 
z"/>
<path fill="#E1D323" opacity="1.000000" stroke="none" 
	d="
M239.697083,193.740295 
	C239.907623,193.643692 240.213669,193.770142 240.571320,194.155640 
	C240.275208,194.394806 239.998428,194.244354 239.697083,193.740295 
z"/>
<path fill="#E5D622" opacity="1.000000" stroke="none" 
	d="
M297.334412,272.037231 
	C297.328186,271.813202 297.649017,271.537964 298.285828,271.193237 
	C298.288361,271.411224 297.974915,271.698639 297.334412,272.037231 
z"/>
<path fill="#E5D622" opacity="1.000000" stroke="none" 
	d="
M296.267822,272.982788 
	C296.201599,272.752777 296.412109,272.493286 296.855804,272.133270 
	C296.907532,272.339630 296.726044,272.646484 296.267822,272.982788 
z"/>
<path fill="#E1D323" opacity="1.000000" stroke="none" 
	d="
M286.125763,182.695801 
	C285.902374,182.740067 285.617828,182.499451 285.264404,181.980560 
	C285.485260,181.938507 285.774902,182.174713 286.125763,182.695801 
z"/>
<path fill="#E1D323" opacity="1.000000" stroke="none" 
	d="
M285.262024,181.569809 
	C285.043152,181.591583 284.785278,181.351868 284.517883,180.838776 
	C284.746582,180.813034 284.984772,181.060684 285.262024,181.569809 
z"/>
<path fill="#0C0903" opacity="1.000000" stroke="none" 
	d="
M127.958694,181.917236 
	C127.999695,182.000000 127.704063,181.818695 127.704063,181.818695 
	C127.704063,181.818695 127.917686,181.834488 127.958694,181.917236 
z"/>
<path fill="#E1D323" opacity="1.000000" stroke="none" 
	d="
M280.074188,174.717041 
	C279.853943,174.775513 279.564911,174.556320 279.182556,174.074966 
	C279.394623,174.021667 279.700012,174.230530 280.074188,174.717041 
z"/>
<path fill="#E1D323" opacity="1.000000" stroke="none" 
	d="
M137.141190,299.587769 
	C136.928955,299.691528 136.613312,299.531982 136.157562,299.141357 
	C136.357559,299.048340 136.697678,299.186401 137.141190,299.587769 
z"/>
<path fill="#E1D323" opacity="1.000000" stroke="none" 
	d="
M138.257416,300.369965 
	C138.050247,300.486694 137.714554,300.360352 137.249969,299.987366 
	C137.457001,299.869415 137.792953,299.998169 138.257416,300.369965 
z"/>
<path fill="#E1D323" opacity="1.000000" stroke="none" 
	d="
M279.137146,173.647308 
	C278.909149,173.697540 278.636078,173.461578 278.285095,172.961136 
	C278.502167,172.918152 278.797150,173.139648 279.137146,173.647308 
z"/>
<path fill="#FDE60B" opacity="1.000000" stroke="none" 
	d="
M240.995895,286.016052 
	C240.548782,286.012451 240.101654,286.008820 239.319275,285.988586 
	C239.540604,285.053375 240.072525,283.354858 240.657578,283.336334 
	C246.801712,283.141937 252.954346,283.216217 259.104645,283.216217 
	C259.117096,283.616669 259.129578,284.017151 259.142029,284.417603 
	C257.609344,284.800659 256.076660,285.183746 254.258255,285.801270 
	C252.927353,286.048401 251.882202,286.061096 250.227875,285.854401 
	C248.728943,285.781372 247.839157,285.927765 246.949371,286.074127 
	C246.522858,286.071350 246.096359,286.068604 245.107391,285.829041 
	C243.361923,285.733490 242.178909,285.874756 240.995895,286.016052 
z"/>
<path fill="#DED335" opacity="1.000000" stroke="none" 
	d="
M204.281448,142.564362 
	C212.106323,142.682755 220.305466,142.990021 228.817017,143.528381 
	C220.971512,143.424088 212.813629,143.088654 204.281448,142.564362 
z"/>
<path fill="#E1D323" opacity="1.000000" stroke="none" 
	d="
M181.268127,303.948944 
	C182.009644,303.236176 183.132660,302.553009 184.588257,301.811768 
	C183.830429,302.495331 182.740021,303.236938 181.268127,303.948944 
z"/>
<path fill="#DED335" opacity="1.000000" stroke="none" 
	d="
M233.468674,144.152252 
	C233.862427,144.152954 233.999847,144.526535 234.070740,144.712067 
	C232.647018,144.722336 231.152390,144.547073 229.432343,144.077393 
	C230.496246,143.905823 231.785583,144.028671 233.468674,144.152252 
z"/>
<path fill="#E1D323" opacity="1.000000" stroke="none" 
	d="
M179.165009,304.895935 
	C179.349045,304.554504 179.848602,304.226105 180.661453,303.884949 
	C180.476669,304.217773 179.978607,304.563385 179.165009,304.895935 
z"/>
<path fill="#0C0903" opacity="1.000000" stroke="none" 
	d="
M78.919373,320.917908 
	C79.051575,320.586334 79.264465,320.325226 79.737381,320.032043 
	C79.997406,320.000031 80.060081,320.103485 79.942993,320.316833 
	C79.619415,320.737030 79.401978,320.931671 79.173576,321.114105 
	C79.173576,321.114105 79.000076,320.988373 78.919373,320.917908 
z"/>
<path fill="#000000" opacity="1.000000" stroke="none" 
	d="
M79.151520,321.463715 
	C79.401978,320.931671 79.619415,320.737030 79.973549,320.369019 
	C83.145782,319.780396 84.541496,320.796997 83.186340,325.283783 
	C81.561783,323.894073 80.345619,322.853699 79.151520,321.463715 
z"/>
<path fill="#FCE604" opacity="1.000000" stroke="none" 
	d="
M247.177032,286.255066 
	C247.839157,285.927765 248.728943,285.781372 249.835175,285.854492 
	C249.169296,286.194641 248.287003,286.315338 247.177032,286.255066 
z"/>
<path fill="#FCE604" opacity="1.000000" stroke="none" 
	d="
M241.398743,286.026489 
	C242.178909,285.874756 243.361923,285.733490 244.787750,285.815857 
	C243.954239,286.038635 242.877914,286.037781 241.398743,286.026489 
z"/>
</svg>